<svg xmlns="http://www.w3.org/2000/svg" width="40" height="40" viewBox="0 0 39 40"><g><g><path d="M19.43.844c10.632 0 19.25 8.618 19.25 19.25 0 10.631-8.618 19.25-19.25 19.25C8.8 39.344.18 30.725.18 20.094.18 9.462 8.8.844 19.43.844z"/></g><g><path fill="#fff" d="M19.897 17.625c-.005.075-.01.133-.01.194l.003 4.63h6.45c0 .478-.567 2.393-2.368 3.612-1.057.71-2.245 1.04-3.502 1.118a7.056 7.056 0 0 1-2.614-.302c-2.69-.86-4.692-3.284-4.967-6.236a6.856 6.856 0 0 1 .147-2.178c.8-3.49 4.12-6.08 7.924-5.521 1.685.247 2.656.945 3.539 1.7l3.504-3.494c-.288-.208-.951-.88-2.134-1.562a11.513 11.513 0 0 0-5.715-1.548c-.383-.005-.769.017-1.15.035a9.324 9.324 0 0 0-1.987.307c-2.605.66-4.767 2.024-6.463 4.106-1.63 1.998-2.505 4.295-2.664 6.856a11.25 11.25 0 0 0 .253 3.23c.678 2.972 2.243 5.373 4.713 7.172 1.913 1.395 4.068 2.141 6.431 2.27a12.828 12.828 0 0 0 3.949-.39c2.414-.629 4.42-1.885 5.926-3.881 2.182-2.89 2.709-6.596 2.066-10.118H19.897z"/></g></g></svg>