<svg xmlns="http://www.w3.org/2000/svg" width="17" height="14" viewBox="0 0 17 14"><g><g><path d="M11.99.02a4.322 4.322 0 0 0-3.434 1.689A4.323 4.323 0 0 0 5.122.019C2.728.02.78 1.975.78 4.38c0 1.13.43 2.202 1.211 3.018l6.124 6.18.441.445.441-.444 6.008-6.063a4.324 4.324 0 0 0 1.327-3.136c0-2.404-1.948-4.36-4.342-4.36z"/><path fill="#999" d="M11.99.02a4.322 4.322 0 0 0-3.434 1.689A4.323 4.323 0 0 0 5.122.019C2.728.02.78 1.975.78 4.38c0 1.13.43 2.202 1.211 3.018l6.124 6.18.441.445.441-.444 6.008-6.063a4.324 4.324 0 0 0 1.327-3.136c0-2.404-1.948-4.36-4.342-4.36z"/></g></g></svg>