<svg xmlns="http://www.w3.org/2000/svg" width="100" viewBox="0 0 108.2 53.93"><g id="Layer_2" data-name="Layer 2"><g id="Layer_1-2" data-name="Layer 1"><path d="M30.65,8.64a14.54,14.54,0,0,0-.83-2.92,9.25,9.25,0,0,0-1.19-2.08A6.12,6.12,0,0,0,27.2,2.27a8.08,8.08,0,0,0-1.66-.84A12.59,12.59,0,0,0,23.23.84,28,28,0,0,0,19.84.51C18.53.45,16.9.42,15,.42c-2.36,0-4.68,0-6.89.09S3.81.64,1.76.72a1.77,1.77,0,0,0-.7.31,1.14,1.14,0,0,0-.4,1V40.37a1.67,1.67,0,0,0,.17.82,1,1,0,0,0,1,.42h4A1.57,1.57,0,0,0,7,41.2a1.87,1.87,0,0,0,.35-1.31V27.09c0-.68.13-.87.17-.91A1,1,0,0,1,8.21,26h8.22a36.49,36.49,0,0,0,6.33-.45,9.14,9.14,0,0,0,4-1.59,9.56,9.56,0,0,0,3-4.38,19,19,0,0,0,1.22-7A22.45,22.45,0,0,0,30.65,8.64Zm-6.58,4.45a9.39,9.39,0,0,1-.85,4.42,5.26,5.26,0,0,1-1.84,2.12,6.32,6.32,0,0,1-1.93.47,34.93,34.93,0,0,1-3.79.15H8.15c-.58,0-.7-.13-.71-.13s-.13-.18-.13-.78V7.13c0-.45.1-.54.11-.54A1.21,1.21,0,0,1,8,6.4c.79-.07,1.79-.11,3-.11h4c1.17,0,2.19,0,3,.09s1.51.12,2.06.2a6,6,0,0,1,1.3.33,6.39,6.39,0,0,1,.84.43A4.3,4.3,0,0,1,23.53,9.2,10.59,10.59,0,0,1,24.07,13.09Z" style="fill:#fff"/><path d="M68.05,35.2a1.53,1.53,0,0,0-.84-.3l-2.12.15q-1.22.09-3,.18c-1.16.06-2.56.11-4.16.15s-3.48.06-5.61.06H48.86q-1.63,0-2.88,0c-.82,0-1.49,0-2-.09l-.58,0a.29.29,0,0,0,0-.09,1.53,1.53,0,0,1,0-.41c0-.67.14-.86.23-1a6.09,6.09,0,0,1,1.72-1.34c1-.6,2.17-1.3,3.53-2.07s2.85-1.6,4.44-2.47,3.14-1.76,4.59-2.6,2.81-1.68,4-2.45a12.81,12.81,0,0,0,2.61-2.13,10.6,10.6,0,0,0,2.11-4,18.37,18.37,0,0,0,.73-5.42,16.34,16.34,0,0,0-.7-5,8.53,8.53,0,0,0-2-3.48A10,10,0,0,0,60.22.7,33.2,33.2,0,0,0,52.46,0,50.84,50.84,0,0,0,45,.45a13.67,13.67,0,0,0-4.39,1.23,5.35,5.35,0,0,0-1.12,1,9,9,0,0,0-.94,1.24,13.24,13.24,0,0,0-.68,1.27,3,3,0,0,0-.3,1.18,1.25,1.25,0,0,0,.28.87,1.23,1.23,0,0,0,1.2.3l2.38-.41c.92-.16,1.91-.3,3-.42s2.13-.21,3.32-.29,2.29-.12,3.43-.12a27.62,27.62,0,0,1,5.42.41A4.79,4.79,0,0,1,59,7.79c.78.71,1.18,2.12,1.18,4.17a12.05,12.05,0,0,1-.29,2.76,6.63,6.63,0,0,1-.71,1.89,9.71,9.71,0,0,1-2.11,1.9c-1.06.76-2.32,1.6-3.75,2.49s-3,1.81-4.61,2.73-3.2,1.86-4.65,2.74S41.31,28.21,40.18,29a10.94,10.94,0,0,0-2.44,2.07,3.47,3.47,0,0,0-.58,1.07c-.14.41-.27.87-.4,1.38a13,13,0,0,0-.27,1.6,15,15,0,0,0-.09,1.63,20.36,20.36,0,0,0,.12,2.61,2.82,2.82,0,0,0,.63,1.52c.24.29.89.57,3.92.71,2.2.1,5.64.15,10.2.15,4.25,0,7.53,0,9.73-.15a12.11,12.11,0,0,0,4.43-.72,3.3,3.3,0,0,0,1.17-1c.31-.4.62-.82.91-1.25a7.25,7.25,0,0,0,.7-1.3,2.93,2.93,0,0,0,.26-1A1.34,1.34,0,0,0,68.05,35.2Z" style="fill:#fff"/><path d="M107.54,8.64a13.91,13.91,0,0,0-.83-2.92,9.25,9.25,0,0,0-1.19-2.08,6.12,6.12,0,0,0-1.43-1.37,8.08,8.08,0,0,0-1.66-.84,12.38,12.38,0,0,0-2.31-.59A28,28,0,0,0,96.74.51C95.42.45,93.79.42,91.89.42c-2.36,0-4.68,0-6.89.09s-4.3.13-6.35.21A1.92,1.92,0,0,0,78,1a1.17,1.17,0,0,0-.4,1V40.37a1.7,1.7,0,0,0,.17.82,1,1,0,0,0,1,.42h4a1.61,1.61,0,0,0,1.26-.41,1.93,1.93,0,0,0,.34-1.31V27.09c0-.68.13-.87.18-.91A1,1,0,0,1,85.1,26h8.22a36.49,36.49,0,0,0,6.33-.45,9.09,9.09,0,0,0,4-1.59,9.56,9.56,0,0,0,3-4.38,19,19,0,0,0,1.22-7A22.45,22.45,0,0,0,107.54,8.64ZM101,13.09a9.39,9.39,0,0,1-.85,4.42,5.26,5.26,0,0,1-1.84,2.12,6.32,6.32,0,0,1-1.93.47,34.93,34.93,0,0,1-3.79.15H85c-.58,0-.7-.13-.71-.13s-.13-.18-.13-.78V7.13c0-.45.1-.54.11-.54a1.21,1.21,0,0,1,.59-.19c.79-.07,1.8-.11,3-.11h4c1.18,0,2.19,0,3,.09s1.51.12,2.06.2a6,6,0,0,1,1.3.33,5.81,5.81,0,0,1,.84.43,4.25,4.25,0,0,1,1.32,1.85A10.76,10.76,0,0,1,101,13.09Z" style="fill:#fff"/><path d="M4.56,49.09a2.86,2.86,0,0,1-.2,1.11,1.37,1.37,0,0,1-.48.65,1.52,1.52,0,0,1-.57.19,4.43,4.43,0,0,1-.9.07H.89c-.09,0-.16,0-.19,0a.32.32,0,0,0,0,.21v2.29c0,.1-.05.15-.16.15H.1c-.07,0-.1,0-.1-.11V47.41c0-.08,0-.13.12-.13l1,0H2.93l.51,0a1.28,1.28,0,0,1,.34.09.92.92,0,0,1,.24.13A1.1,1.1,0,0,1,4.4,48,2.71,2.71,0,0,1,4.56,49.09Zm-.67,0a2.14,2.14,0,0,0-.1-.76,1,1,0,0,0-.27-.4l-.16-.08-.26-.06a2.21,2.21,0,0,0-.39,0H1.39l-.58,0a.25.25,0,0,0-.13,0s0,.07,0,.15v2.28c0,.11,0,.18,0,.21a.31.31,0,0,0,.2,0H2.33a5.75,5.75,0,0,0,.65,0,1,1,0,0,0,.37-.09A.91.91,0,0,0,3.73,50,1.88,1.88,0,0,0,3.89,49.14Z" style="fill:#fff"/><path d="M6.23,47.38c0-.08,0-.12.13-.12h.31a.22.22,0,0,1,.18.06.32.32,0,0,1,.05.21V53a.29.29,0,0,0,.06.22.29.29,0,0,0,.21.06H8.54l1.27,0,.87,0c.06,0,.09,0,.09.1a.43.43,0,0,1-.11.26.61.61,0,0,1-.22.21,2.54,2.54,0,0,1-.62.06c-.34,0-.77,0-1.29,0H7.4l-.93,0a.37.37,0,0,1-.15-.05.24.24,0,0,1-.09-.22Z" style="fill:#fff"/><path d="M12.23,53.42a.56.56,0,0,1-.2.31.54.54,0,0,1-.33.08h-.1a.13.13,0,0,1-.1,0,.16.16,0,0,1,0-.08.37.37,0,0,1,0-.12.85.85,0,0,1,0-.15L13,48.84a6.26,6.26,0,0,1,.2-.61c.06-.16.11-.29.16-.39a1.57,1.57,0,0,1,.16-.25.54.54,0,0,1,.15-.15,1.57,1.57,0,0,1,1-.24,2.9,2.9,0,0,1,.58,0,.72.72,0,0,1,.49.32,2,2,0,0,1,.14.26c0,.11.1.24.16.4s.12.35.19.59l1.35,4.64,0,.15s0,.06,0,.09,0,0,0,.07a.16.16,0,0,1-.12,0h-.14a.51.51,0,0,1-.32-.09.69.69,0,0,1-.18-.32l-.52-1.79a.54.54,0,0,0-.14-.24.82.82,0,0,0-.38-.06H13.28a.77.77,0,0,0-.37.07.62.62,0,0,0-.19.33Zm3.71-2.85a1.19,1.19,0,0,0,0-.2c0-.1-.07-.23-.11-.39l-.28-1a5.79,5.79,0,0,0-.25-.73,1,1,0,0,0-.21-.3.73.73,0,0,0-.5-.13.66.66,0,0,0-.75.45,5,5,0,0,0-.26.75L13.23,50l-.08.32a.65.65,0,0,0,0,.18c0,.1,0,.15.07.18a.74.74,0,0,0,.28,0h2.16a.49.49,0,0,0,.26,0A.17.17,0,0,0,15.94,50.57Z" style="fill:#fff"/><path d="M24.67,53.06a1.27,1.27,0,0,1-.05.39.48.48,0,0,1-.13.22.61.61,0,0,1-.23.14,1.46,1.46,0,0,1-.49.06,1.3,1.3,0,0,1-.43,0,1,1,0,0,1-.28-.12,1.59,1.59,0,0,1-.42-.64l-2.05-4.78a1.18,1.18,0,0,0-.25-.42.45.45,0,0,0-.3-.09c-.13,0-.21,0-.25.08a.42.42,0,0,0-.05.22v5.44a.3.3,0,0,1-.08.24.4.4,0,0,1-.25.06h-.16q-.08,0-.09,0s0-.05,0-.09V48a.94.94,0,0,1,.17-.65.54.54,0,0,1,.24-.12,1.39,1.39,0,0,1,.45-.05,2.83,2.83,0,0,1,.47,0,.7.7,0,0,1,.26.12.67.67,0,0,1,.21.23,3.7,3.7,0,0,1,.24.46l2,4.77a1.09,1.09,0,0,0,.23.38.45.45,0,0,0,.3.09c.13,0,.21,0,.25-.1a.48.48,0,0,0,.06-.26V47.55a.35.35,0,0,1,.06-.23.4.4,0,0,1,.27-.07h.15a.16.16,0,0,1,.11,0,.2.2,0,0,1,0,.09Z" style="fill:#fff"/><path d="M31.5,53.67c0,.1,0,.14-.12.14H31c-.07,0-.1,0-.1-.11V48.3a.9.9,0,0,0,0-.25.22.22,0,0,0-.23-.22.94.94,0,0,0-.26,0H28.53a.09.09,0,0,1-.08,0,.08.08,0,0,1,0-.07.48.48,0,0,1,.05-.23.49.49,0,0,1,.12-.15.38.38,0,0,1,.14,0h5.09l.09,0a.08.08,0,0,1,0,.07.46.46,0,0,1-.06.23.44.44,0,0,1-.1.16.17.17,0,0,1-.12,0H32a.86.86,0,0,0-.25,0,.26.26,0,0,0-.15.07.34.34,0,0,0-.06.15,1.87,1.87,0,0,0,0,.27Z" style="fill:#fff"/><path d="M40.2,50.49a6.87,6.87,0,0,1-.08,1.07,4.42,4.42,0,0,1-.19.83,2.4,2.4,0,0,1-.28.6,1.85,1.85,0,0,1-.32.39,2.1,2.1,0,0,1-.82.4,5,5,0,0,1-1.26.13A4.19,4.19,0,0,1,36,53.75a2,2,0,0,1-.79-.46,1.54,1.54,0,0,1-.27-.37,2.17,2.17,0,0,1-.22-.55,4.45,4.45,0,0,1-.16-.75,7.36,7.36,0,0,1-.06-1,5.58,5.58,0,0,1,.25-1.85,2.3,2.3,0,0,1,.61-1,2.36,2.36,0,0,1,.81-.42,4.22,4.22,0,0,1,1.27-.16,4.5,4.5,0,0,1,1.3.15,2.21,2.21,0,0,1,.78.41,1.55,1.55,0,0,1,.28.36,2.51,2.51,0,0,1,.22.56,4.64,4.64,0,0,1,.16.78A8,8,0,0,1,40.2,50.49Zm-.67,0a6.2,6.2,0,0,0-.15-1.5,1.73,1.73,0,0,0-.41-.84,1.26,1.26,0,0,0-.67-.34,4.28,4.28,0,0,0-.92-.09,3.2,3.2,0,0,0-1,.13,1.5,1.5,0,0,0-.58.33,2,2,0,0,0-.45.82,4.64,4.64,0,0,0-.21,1.54,5.35,5.35,0,0,0,.16,1.49,1.81,1.81,0,0,0,.4.79,1.45,1.45,0,0,0,.64.34,3.28,3.28,0,0,0,.93.12,4,4,0,0,0,1-.11,1.74,1.74,0,0,0,.61-.27,1.87,1.87,0,0,0,.46-.81A5.2,5.2,0,0,0,39.53,50.53Z" style="fill:#fff"/><path d="M49.86,49.26a3.08,3.08,0,0,1-.2,1.2,1.56,1.56,0,0,1-.48.72.75.75,0,0,1-.28.18,2.25,2.25,0,0,1-.37.13,3.22,3.22,0,0,1-.51.08l-.67,0H46.29a.29.29,0,0,0-.21.06.38.38,0,0,0,0,.24v1.63a.41.41,0,0,1-.05.23.28.28,0,0,1-.2.06h-1.3c-.11,0-.17-.06-.17-.19V47.48a.18.18,0,0,1,.06-.15.21.21,0,0,1,.12,0l1.11,0h2.27c.26,0,.47,0,.65.07a2.61,2.61,0,0,1,.42.1,1.57,1.57,0,0,1,.29.16,1.47,1.47,0,0,1,.45.57A2.75,2.75,0,0,1,49.86,49.26Zm-1.74.15a1.19,1.19,0,0,0-.07-.47.5.5,0,0,0-.17-.24.49.49,0,0,0-.27-.11,4.64,4.64,0,0,0-.63,0h-.8c-.11,0-.16.08-.16.21V50a.37.37,0,0,0,0,.21s.1.06.21.06H47a3.11,3.11,0,0,0,.48,0,.71.71,0,0,0,.28-.08.65.65,0,0,0,.21-.26A1.09,1.09,0,0,0,48.12,49.41Z" style="fill:#fff"/><path d="M54,48.59H53a.25.25,0,0,0-.18.07.32.32,0,0,0-.05.2v.78a.18.18,0,0,0,.06.15.29.29,0,0,0,.19.05H55.8a.33.33,0,0,1,.15,0S56,50,56,50a.85.85,0,0,1,0,.24,1.52,1.52,0,0,1-.09.28,2.39,2.39,0,0,1-.13.28.86.86,0,0,1-.15.2.69.69,0,0,1-.25.1l-.38,0H53a.28.28,0,0,0-.2,0,.3.3,0,0,0-.05.18v.81a.29.29,0,0,0,.06.22s.1.06.21.07h.91c.5,0,.92,0,1.27,0l.92,0a.15.15,0,0,1,.14,0s.06.08.06.16a2.25,2.25,0,0,1-.08.33,1.87,1.87,0,0,1-.15.32,1.38,1.38,0,0,1-.19.28.63.63,0,0,1-.18.16,1,1,0,0,1-.22.06,2.6,2.6,0,0,1-.37,0l-.59,0H52.28l-1,0a.36.36,0,0,1-.13-.05.27.27,0,0,1-.08-.22v-6a.19.19,0,0,1,.08-.18l.13,0,.57,0H55a2.15,2.15,0,0,1,.69.09.56.56,0,0,1,.18.17,1.38,1.38,0,0,1,.16.27,1.61,1.61,0,0,1,.12.33,2.05,2.05,0,0,1,.07.34.15.15,0,0,1-.05.14.27.27,0,0,1-.14,0l-.41,0H54Z" style="fill:#fff"/><path d="M57.53,47.45a.14.14,0,0,1,0-.13.19.19,0,0,1,.12,0l1.14,0c.41,0,.84,0,1.26,0s.72,0,1,0l.69,0a3.09,3.09,0,0,1,.45.1,1.79,1.79,0,0,1,.31.16,1.18,1.18,0,0,1,.43.52,2.38,2.38,0,0,1,.15.93A3,3,0,0,1,63,50a2.26,2.26,0,0,1-.33.64,1.14,1.14,0,0,0-.13.23.34.34,0,0,0,0,.18,1.4,1.4,0,0,0,.05.31c0,.12.08.28.14.46l.67,1.75a.21.21,0,0,1,0,.19.15.15,0,0,1-.16.08h-.66a3,3,0,0,1-.47,0,.82.82,0,0,1-.33-.13.77.77,0,0,1-.23-.27,2.06,2.06,0,0,1-.19-.44l-.3-.81a1.55,1.55,0,0,0-.12-.28.66.66,0,0,0-.14-.18.6.6,0,0,0-.2-.08l-.27,0h-.76a.36.36,0,0,0-.21,0,.38.38,0,0,0,0,.24v1.66a.33.33,0,0,1-.06.23.24.24,0,0,1-.19.06H57.7c-.12,0-.17-.06-.17-.19Zm3.84,1.88a1.53,1.53,0,0,0,0-.41.6.6,0,0,0-.16-.24.53.53,0,0,0-.28-.11,5.37,5.37,0,0,0-.64,0h-.85a.17.17,0,0,0-.11.06.22.22,0,0,0,0,.16V50c0,.11,0,.19,0,.22s.1.06.21.06h1.31A.33.33,0,0,0,61,50.2c.07,0,.14-.11.23-.27A1.34,1.34,0,0,0,61.37,49.33Z" style="fill:#fff"/><path d="M64.5,47.48a.18.18,0,0,1,.07-.16.24.24,0,0,1,.13,0l.55,0h3.17a1.56,1.56,0,0,1,.62.12.56.56,0,0,1,.18.17,1.28,1.28,0,0,1,.16.26,2.53,2.53,0,0,1,.12.33,1.45,1.45,0,0,1,0,.35.15.15,0,0,1-.06.15.23.23,0,0,1-.16,0l-.81,0-1.13,0h-.5l-.41,0a.31.31,0,0,0-.18.06.27.27,0,0,0-.05.19v1a.18.18,0,0,0,.06.16.46.46,0,0,0,.2,0h2.62a.24.24,0,0,1,.15,0,.18.18,0,0,1,.06.15,1.12,1.12,0,0,1,0,.24,1.67,1.67,0,0,1-.08.3,1.34,1.34,0,0,1-.12.3.69.69,0,0,1-.17.2.54.54,0,0,1-.23.1l-.37,0H66.51a.29.29,0,0,0-.21.06.24.24,0,0,0-.06.17V53.3a1.06,1.06,0,0,1,0,.27.27.27,0,0,1-.08.15.21.21,0,0,1-.14.07.82.82,0,0,1-.23,0H64.64a.12.12,0,0,1-.11,0,.28.28,0,0,1,0-.13Z" style="fill:#fff"/><path d="M73.62,48.59H72.57a.25.25,0,0,0-.18.07.33.33,0,0,0,0,.2v.78a.21.21,0,0,0,.05.15.31.31,0,0,0,.19.05h2.8a.29.29,0,0,1,.14,0s.06.07.06.14a1.29,1.29,0,0,1,0,.24c0,.09-.06.19-.1.28a1.43,1.43,0,0,1-.13.28.86.86,0,0,1-.15.2.63.63,0,0,1-.25.1l-.38,0h-2a.19.19,0,0,0-.24.23v.81a.35.35,0,0,0,.05.22.34.34,0,0,0,.21.07h.91c.5,0,.92,0,1.27,0l.93,0a.16.16,0,0,1,.14,0,.16.16,0,0,1,0,.16,1.44,1.44,0,0,1-.08.33,1.83,1.83,0,0,1-.14.32,2,2,0,0,1-.19.28.64.64,0,0,1-.19.16.75.75,0,0,1-.22.06,2.43,2.43,0,0,1-.36,0l-.6,0H71.87l-1.05,0a.28.28,0,0,1-.12-.05.24.24,0,0,1-.09-.22v-6a.18.18,0,0,1,.09-.18l.12,0,.58,0h3.21a2.15,2.15,0,0,1,.69.09.46.46,0,0,1,.17.17,1,1,0,0,1,.16.27,2.52,2.52,0,0,1,.13.33,2,2,0,0,1,.06.34.15.15,0,0,1,0,.14.24.24,0,0,1-.14,0l-.4,0H73.62Z" style="fill:#fff"/><path d="M78.69,50.52a3.67,3.67,0,0,0,.11,1,1.14,1.14,0,0,0,.31.55,1.4,1.4,0,0,0,.59.23,5.47,5.47,0,0,0,1,.07,8.33,8.33,0,0,0,1-.06l.75-.07a.15.15,0,0,1,.11,0s0,.06,0,.13a2,2,0,0,1-.09.33c0,.11-.09.22-.14.33a2,2,0,0,1-.19.28.63.63,0,0,1-.2.2,2,2,0,0,1-.7.23A8.71,8.71,0,0,1,80,53.9a5.54,5.54,0,0,1-1.47-.16,2,2,0,0,1-.88-.45,2.18,2.18,0,0,1-.55-.91,5.45,5.45,0,0,1-.23-1.77,4.94,4.94,0,0,1,.28-1.82,2.51,2.51,0,0,1,.69-1,2.33,2.33,0,0,1,.35-.22,2.51,2.51,0,0,1,.49-.19,3.39,3.39,0,0,1,.65-.13,7.56,7.56,0,0,1,.88,0,9.24,9.24,0,0,1,1.16.06,1.5,1.5,0,0,1,.65.18,1.21,1.21,0,0,1,.42.51,2.2,2.2,0,0,1,.18.65.21.21,0,0,1,0,.12.11.11,0,0,1-.12,0l-.74-.09c-.27,0-.6,0-1,0a5.46,5.46,0,0,0-.62,0,2.27,2.27,0,0,0-.43.07,1.46,1.46,0,0,0-.31.09l-.21.12a1.14,1.14,0,0,0-.36.56A3.19,3.19,0,0,0,78.69,50.52Z" style="fill:#fff"/><path d="M87.17,53.54a.33.33,0,0,1-.06.21.24.24,0,0,1-.19.06H85.59c-.07,0-.11,0-.13-.05a.25.25,0,0,1,0-.13V49.31a3.21,3.21,0,0,0,0-.36.34.34,0,0,0-.09-.21.48.48,0,0,0-.23-.09,2.06,2.06,0,0,0-.39,0H83.37c-.11,0-.16,0-.16-.13a1.94,1.94,0,0,1,0-.34,1.61,1.61,0,0,1,.06-.33,1.25,1.25,0,0,1,.08-.27.5.5,0,0,1,.11-.17.59.59,0,0,1,.3-.11l.57,0h4.9a.19.19,0,0,1,.15,0,.17.17,0,0,1,0,.13c0,.12,0,.23,0,.35a3.26,3.26,0,0,1,0,.33c0,.1-.05.19-.08.27a.36.36,0,0,1-.1.15.44.44,0,0,1-.21.08H87.82l-.34,0a.46.46,0,0,0-.2.09.5.5,0,0,0-.09.22,3.47,3.47,0,0,0,0,.38Z" style="fill:#fff"/><path d="M92.16,53.32a.62.62,0,0,1-.1.4.57.57,0,0,1-.37.09H90.57c-.11,0-.16-.06-.16-.19V47.73a.39.39,0,0,1,.47-.48H92c.11,0,.17.07.17.19Z" style="fill:#fff"/><path d="M100,50.49a5.44,5.44,0,0,1-.26,1.82,2.35,2.35,0,0,1-.67,1,2.67,2.67,0,0,1-1,.46,6.55,6.55,0,0,1-1.34.14,7.61,7.61,0,0,1-.88,0,4.64,4.64,0,0,1-.66-.15,2.59,2.59,0,0,1-.5-.21,1.91,1.91,0,0,1-.35-.27,2.18,2.18,0,0,1-.56-1,5.9,5.9,0,0,1-.21-1.76,4.83,4.83,0,0,1,.28-1.77,2.53,2.53,0,0,1,.67-1,2.69,2.69,0,0,1,.9-.44,5.08,5.08,0,0,1,1.47-.18,5.56,5.56,0,0,1,1.51.17,2.11,2.11,0,0,1,.86.45,2.26,2.26,0,0,1,.55,1A5.59,5.59,0,0,1,100,50.49Zm-1.77,0a3.85,3.85,0,0,0-.11-1.07,1.26,1.26,0,0,0-.27-.57,1,1,0,0,0-.46-.2,2.46,2.46,0,0,0-.6-.07,2.22,2.22,0,0,0-.69.09,1.34,1.34,0,0,0-.4.2,1.48,1.48,0,0,0-.3.57,3.58,3.58,0,0,0-.14,1.08,3.79,3.79,0,0,0,.12,1,1.35,1.35,0,0,0,.28.58,1,1,0,0,0,.42.22,2.39,2.39,0,0,0,.62.08,2.84,2.84,0,0,0,.71-.08.93.93,0,0,0,.4-.19,1.24,1.24,0,0,0,.29-.56A3.8,3.8,0,0,0,98.25,50.49Z" style="fill:#fff"/><path d="M108.2,52.5a3.12,3.12,0,0,1-.06.7,1.15,1.15,0,0,1-.19.4.59.59,0,0,1-.18.13.85.85,0,0,1-.27.09l-.42,0a5,5,0,0,1-.58,0,4.55,4.55,0,0,1-.86-.06,1,1,0,0,1-.46-.2,1.39,1.39,0,0,1-.3-.38,3.15,3.15,0,0,1-.26-.63L103.49,49a.7.7,0,0,0-.14-.29.26.26,0,0,0-.19-.08c-.09,0-.15,0-.17.06s0,.09,0,.19v4.22a1,1,0,0,1-.06.38.49.49,0,0,1-.18.22.7.7,0,0,1-.29.1,2.75,2.75,0,0,1-.43,0h-.42c-.12,0-.17-.06-.17-.19V48.8a4.1,4.1,0,0,1,.07-.91,1,1,0,0,1,.25-.44,1.08,1.08,0,0,1,.47-.21,4.9,4.9,0,0,1,.87-.06,4.27,4.27,0,0,1,.8.06,1.36,1.36,0,0,1,.49.2,2.51,2.51,0,0,1,.65,1.21l1.09,3.48a.79.79,0,0,0,.14.28.24.24,0,0,0,.19.08.15.15,0,0,0,.16-.1.55.55,0,0,0,0-.24V48a1.65,1.65,0,0,1,0-.34.45.45,0,0,1,.13-.22.57.57,0,0,1,.26-.11,2.84,2.84,0,0,1,.47,0h.5a.17.17,0,0,1,.19.19Z" style="fill:#fff"/></g></g></svg>