<svg id="Layer_1" data-name="Layer 1" width='95' xmlns="http://www.w3.org/2000/svg" viewBox="0 0 95.56 37.2"><path d="M433.88,291.51a13.24,13.24,0,0,0-.74-2.6,8.75,8.75,0,0,0-1.06-1.86,5.64,5.64,0,0,0-1.28-1.22,7.61,7.61,0,0,0-1.48-.75,11.14,11.14,0,0,0-2.06-.52,22.76,22.76,0,0,0-3-.3c-1.17-.05-2.62-.08-4.31-.08-2.11,0-4.18,0-6.15.08s-3.83.12-5.66.19a1.52,1.52,0,0,0-.62.28,1,1,0,0,0-.36.87v34.2a1.45,1.45,0,0,0,.15.73.89.89,0,0,0,.85.37h3.56a1.42,1.42,0,0,0,1.12-.36,1.75,1.75,0,0,0,.3-1.17V308c0-.6.12-.77.16-.81a.87.87,0,0,1,.59-.16h7.33a32.25,32.25,0,0,0,5.64-.4,8.15,8.15,0,0,0,3.54-1.42,8.48,8.48,0,0,0,2.68-3.9,17,17,0,0,0,1.09-6.27A21,21,0,0,0,433.88,291.51Zm-5.87,4a8.38,8.38,0,0,1-.75,3.94,4.83,4.83,0,0,1-1.64,1.89,5.68,5.68,0,0,1-1.73.42,31.13,31.13,0,0,1-3.38.13h-6.69c-.52,0-.63-.11-.63-.12s-.12-.16-.12-.68V290.17c0-.4.09-.48.09-.48a1,1,0,0,1,.54-.17c.69-.07,1.59-.11,2.67-.11h3.56c1,0,1.94,0,2.68.08s1.35.12,1.83.19a4.35,4.35,0,0,1,1.16.29,4.68,4.68,0,0,1,.75.38,3.86,3.86,0,0,1,1.18,1.66A9.5,9.5,0,0,1,428,295.48Z" transform="translate(-407.14 -283.81)"/><path d="M467.22,315.19a1.28,1.28,0,0,0-.75-.26l-1.89.13c-.72.05-1.6.11-2.64.16s-2.29.1-3.71.13-3.11,0-5,0h-3.11l-2.56,0c-.73,0-1.33-.05-1.79-.08l-.51-.05,0-.08a1.37,1.37,0,0,1,0-.36c0-.6.12-.77.21-.86a5.25,5.25,0,0,1,1.53-1.2c.88-.54,1.94-1.16,3.15-1.85s2.54-1.42,3.95-2.2,2.81-1.56,4.1-2.31,2.5-1.5,3.55-2.19a11.92,11.92,0,0,0,2.33-1.9,9.56,9.56,0,0,0,1.87-3.53,16.26,16.26,0,0,0,.66-4.83,14.58,14.58,0,0,0-.63-4.49,7.6,7.6,0,0,0-1.77-3.1,9,9,0,0,0-3.9-1.92,30.06,30.06,0,0,0-6.91-.62,45,45,0,0,0-6.64.4,12.65,12.65,0,0,0-3.92,1.09,5.42,5.42,0,0,0-1,.89,8.66,8.66,0,0,0-.83,1.11,9.67,9.67,0,0,0-.61,1.13,2.63,2.63,0,0,0-.27,1.05,1.18,1.18,0,0,0,.25.78,1.12,1.12,0,0,0,1.08.26l2.12-.37c.82-.14,1.7-.26,2.63-.37s1.91-.19,3-.26,2-.11,3.06-.11a24.55,24.55,0,0,1,4.83.37,4.22,4.22,0,0,1,2.2,1c.7.64,1.05,1.89,1.05,3.72a11.46,11.46,0,0,1-.25,2.47,6,6,0,0,1-.64,1.68,8.47,8.47,0,0,1-1.88,1.69c-.94.68-2.07,1.43-3.35,2.22s-2.68,1.62-4.11,2.43-2.85,1.66-4.15,2.45-2.47,1.55-3.49,2.24a10.09,10.09,0,0,0-2.17,1.85,2.89,2.89,0,0,0-.51,1,11.56,11.56,0,0,0-.36,1.23,12.34,12.34,0,0,0-.25,1.42,14.25,14.25,0,0,0-.08,1.45,18.24,18.24,0,0,0,.11,2.33,2.6,2.6,0,0,0,.56,1.36c.22.25.8.5,3.5.63,2,.09,5,.13,9.09.13,3.79,0,6.71,0,8.68-.13a10.8,10.8,0,0,0,3.95-.65,2.76,2.76,0,0,0,1-.84c.28-.35.55-.73.81-1.12a5.93,5.93,0,0,0,.62-1.15,2.74,2.74,0,0,0,.24-.93A1.19,1.19,0,0,0,467.22,315.19Z" transform="translate(-407.14 -283.81)"/><path d="M502.43,291.51a12.59,12.59,0,0,0-.74-2.6,8.75,8.75,0,0,0-1.06-1.86,5.64,5.64,0,0,0-1.28-1.22,7.33,7.33,0,0,0-1.48-.75,11.14,11.14,0,0,0-2.06-.52,22.77,22.77,0,0,0-3-.3c-1.18-.05-2.63-.08-4.32-.08-2.11,0-4.18,0-6.14.08s-3.84.12-5.67.19a1.52,1.52,0,0,0-.62.28,1,1,0,0,0-.36.87v34.2a1.45,1.45,0,0,0,.15.73.89.89,0,0,0,.85.37h3.56a1.42,1.42,0,0,0,1.12-.36,1.75,1.75,0,0,0,.3-1.17V308c0-.6.12-.77.16-.81a.87.87,0,0,1,.59-.16h7.33a32.25,32.25,0,0,0,5.64-.4,8.19,8.19,0,0,0,3.55-1.42,8.54,8.54,0,0,0,2.67-3.9A17,17,0,0,0,502.7,295,19.88,19.88,0,0,0,502.43,291.51Zm-5.87,4a8.38,8.38,0,0,1-.75,3.94,4.83,4.83,0,0,1-1.64,1.89,5.68,5.68,0,0,1-1.72.42,31.47,31.47,0,0,1-3.39.13h-6.69c-.52,0-.63-.11-.63-.12s-.12-.16-.12-.68V290.17c0-.4.09-.48.1-.49a1.07,1.07,0,0,1,.53-.16c.7-.07,1.59-.11,2.67-.11h3.56c1,0,1.95,0,2.68.08s1.35.12,1.83.19a4.35,4.35,0,0,1,1.16.29,4.68,4.68,0,0,1,.75.38,3.78,3.78,0,0,1,1.18,1.66A9.5,9.5,0,0,1,496.56,295.48Z" transform="translate(-407.14 -283.81)"/></svg>