<svg xmlns="http://www.w3.org/2000/svg" width="22" height="15" viewBox="0 0 22 15"><g><g><path fill="#a0a0a0" d="M10.3.674a.695.695 0 0 1-.694.698c-3.34 0-6.226 1.986-7.552 4.842a4.468 4.468 0 0 1 2.348-.664c2.487 0 4.51 2.03 4.51 4.525 0 2.496-2.023 4.526-4.51 4.526-2.487 0-4.51-2.03-4.51-4.526 0-.088.004-.176.01-.263-.004-.028-.01-.055-.01-.083 0-5.375 4.357-9.747 9.714-9.747.383 0 .695.308.695.692zm11.794 0a.692.692 0 0 1-.694.698c-3.34 0-6.223 1.985-7.549 4.839a4.47 4.47 0 0 1 2.345-.66c2.487 0 4.513 2.03 4.513 4.524 0 2.496-2.026 4.526-4.513 4.526s-4.51-2.03-4.51-4.526c0-.088.003-.176.008-.264-.003-.028-.008-.055-.008-.082 0-5.375 4.357-9.747 9.714-9.747.386 0 .694.308.694.692z"/></g></g></svg>