<?xml version="1.0" encoding="iso-8859-1"?>
<!-- Generator: Adobe Illustrator 19.0.0, SVG Export Plug-In . SVG Version: 6.00 Build 0)  -->
<svg xmlns="http://www.w3.org/2000/svg" width="90px" height="90px"
	 viewBox="0 0 512.018 512.018" >
<g transform="translate(0 -1)">
	
			<path fill="#be926f" d="M450.193,108.697c-2.281-5.283-6.281-9.639-11.35-12.362L268.193,4.101c-7.59-4.132-16.757-4.135-24.35-0.008
				L73.235,96.305c-6.109,3.255-10.633,8.852-12.533,15.508c-0.662,2.291-0.985,4.666-0.958,7.05v182.529
				c-0.009,9.408,5.151,18.061,13.433,22.525l67.962,36.716c-2.991,10.457-4.595,21.5-4.595,32.918
				c0,65.98,53.487,119.467,119.467,119.467c65.949-0.074,119.393-53.518,119.467-119.467c0-11.418-1.604-22.461-4.595-32.918
				l67.953-36.711c8.286-4.463,13.45-13.118,13.442-22.529V118.863C452.264,115.37,451.555,111.914,450.193,108.697z
				 M251.976,19.101c2.524-1.36,5.563-1.357,8.083,0.009l168.475,91.052l-172.525,90.318L83.49,110.164L251.976,19.101z
				 M81.285,308.897c-2.759-1.487-4.478-4.37-4.475-7.504V125.928l170.667,89.345v59.118c-44.799,3.162-82.78,31.02-100.403,70.047
				L81.285,308.897z M256.01,495.951c-56.554,0-102.4-45.846-102.4-102.4c0-56.554,45.846-102.4,102.4-102.4
				c44.355,0.05,82.106,28.267,96.34,67.725c0.1,0.346,0.216,0.683,0.356,1.008c3.679,10.544,5.691,21.871,5.704,33.667
				C358.41,450.105,312.564,495.951,256.01,495.951z M430.727,308.901l-65.781,35.537c-17.623-39.028-55.603-66.885-100.403-70.048
				v-59.118l170.667-89.345v175.465C435.212,304.53,433.49,307.415,430.727,308.901z"/>
			<path fill="#be926f" d="M230.493,344.363c-6.371-2.667-13.546-2.667-19.917,0c-3.046,1.281-5.812,3.145-8.142,5.488
				c-2.333,2.331-4.195,5.089-5.483,8.125c-1.841,4.34,0.185,9.351,4.525,11.192c4.34,1.841,9.351-0.185,11.192-4.525
				c1.104-2.622,3.443-4.522,6.236-5.065c2.793-0.544,5.673,0.34,7.681,2.357c1.591,1.598,2.484,3.761,2.483,6.017v8.533
				c0.004,1.137-0.223,2.262-0.667,3.308c-1.333,3.165-4.432,5.223-7.867,5.225c-4.713,0-8.533,3.821-8.533,8.533
				c0,4.713,3.82,8.533,8.533,8.533c2.272-0.005,4.452,0.902,6.05,2.517c1.591,1.598,2.484,3.761,2.483,6.017v8.533
				c0.004,1.137-0.223,2.262-0.667,3.308c-1.333,3.165-4.433,5.223-7.867,5.223s-6.534-2.058-7.867-5.223
				c-1.841-4.34-6.852-6.366-11.192-4.525c-4.34,1.841-6.366,6.852-4.525,11.192c4.017,9.466,13.3,15.616,23.583,15.625
				c6.79,0.003,13.304-2.693,18.105-7.495s7.498-11.315,7.495-18.105v-8.533c0.005-6.314-2.328-12.387-6.515-17.069
				c4.185-4.681,6.518-10.752,6.515-17.064v-8.533C246.143,357.657,239.979,348.362,230.493,344.363z"/>
			<path fill="#be926f" d="M273.685,342.405c-4.585-0.208-9.055,1.472-12.367,4.65c-3.385,3.245-5.301,7.728-5.308,12.417v68.158
				c0.007,4.689,1.924,9.172,5.308,12.417c3.109,3,7.263,4.674,11.583,4.667c0.258,0,0.525-0.004,0.783-0.017
				c9.867-0.458,42.058-5.5,42.058-51.146C315.743,347.905,283.551,342.863,273.685,342.405z M273.076,427.631v-68.158l-0.175-0.017
				v0c17.1,0.792,25.775,12.263,25.775,34.096C298.676,415.385,290.001,426.856,273.076,427.631z"/>
</g>
</svg>
