<svg xmlns="http://www.w3.org/2000/svg" viewBox="0 0 73.95 16.82">
<path fill="#be926f" d="M463.57,494h2.87l.06-.17-3.21-2.41h73.95l-2.1,1.59q-8.7,6.51-17.4,13a2.21,2.21,0,0,1-1.67.54c-.19,0-.39,0-.59,0a4.36,4.36,0,0,0-3.79,1.22,2.06,2.06,0,0,1-1.26.43q-13.64,0-27.25,0a2.05,2.05,0,0,1-1.14-.33q-9.1-6.69-18.16-13.42c-.13-.09-.25-.2-.38-.31Zm26.37,8.82c-.12-.33-.19-.56-.29-.78-.94-2.14-1.91-4.26-2.82-6.41a1,1,0,0,0-1.07-.66c-6.2,0-12.39,0-18.59,0-.22,0-.45,0-.81.06.19.18.26.26.35.33q4.82,3.57,9.65,7.12a1.89,1.89,0,0,0,1.08.3c3.75,0,7.5,0,11.25,0ZM488.36,495c0,.12,0,.18,0,.22.91,2.38,1.81,4.77,2.77,7.14a1,1,0,0,0,.77.4c3.77,0,7.55,0,11.32,0a.89.89,0,0,0,.95-.6c.77-1.66,1.58-3.3,2.37-5,.34-.71.68-1.43,1.05-2.23Zm38.74,0c-.36,0-.46-.06-.57-.06q-8.28,0-16.57,0a1.22,1.22,0,0,0-.86.56c-1.22,2.18-2.4,4.38-3.58,6.58a5.4,5.4,0,0,0-.27.67h.93c3.24,0,6.49,0,9.74,0a2.68,2.68,0,0,0,1.5-.49c2.67-1.95,5.3-3.94,8-5.92ZM492,507.25c-.46-1-.89-1.94-1.25-2.86a1,1,0,0,0-1.11-.72c-3.55,0-7.1,0-10.66,0-.23,0-.46,0-.88.07,1.49,1.1,2.8,2.11,4.16,3.05a2.44,2.44,0,0,0,1.28.42c2.17,0,4.33,0,6.5,0Zm11.43-3.52H491.61c.43,1.11.81,2.14,1.25,3.15a.83.83,0,0,0,.64.35c2.58,0,5.15,0,7.73,0a.79.79,0,0,0,.61-.28C502.38,505.93,502.86,504.87,503.4,503.73Zm11.91.14-.06-.18H505a.58.58,0,0,0-.43.19c-.6,1.07-1.18,2.16-1.84,3.36h7.77a1,1,0,0,0,.54-.19C512.48,506,513.89,504.94,515.31,503.87Z" transform="translate(-463.29 -491.39)"/></svg>