<svg xmlns="http://www.w3.org/2000/svg" viewBox="0 0 50 45.57">
    <path fill="#be926f" d="M520.7,493.93a6.22,6.22,0,0,0-5.47-6.17v-3.65H486.36v30h3.14V513h-2V493.53h3.18v-.73h-3.18v-7.55h11.55v7.55h-3.37v.73h3.37v2.2h.73V485.25h14.3V489l.4,0a4.95,4.95,0,0,1,0,9.89h-.4v4.21h-14.3v-2.34h-.73v5.09h.73v-2h14.3V513h-14.3v-2.16h-.73V513h-2.25v1.14h18.42v-14A6.22,6.22,0,0,0,520.7,493.93Z" transform="translate(-475.26 -477.02)"/>
    <rect fill="#be926f" x="6.87" y="43.32" width="42.4" height="0.45"/>
    <polygon fill="#be926f" points="47.65 41.96 48.09 41.57 50 43.55 48.13 45.57 47.65 45.17 49.26 43.57 47.65 41.96"/>
    <polygon fill="#be926f" points="8.78 41.96 8.34 41.57 6.43 43.55 8.3 45.57 8.78 45.17 7.16 43.57 8.78 41.96"/>
    <rect fill="#be926f" x="456.03" y="498.73" width="42.4" height="0.45" transform="translate(-496.98 499.17) rotate(-90)"/>
    <polygon fill="#be926f" points="0.38 2.35 0 1.91 1.97 0 4 1.87 3.6 2.35 2 0.74 0.38 2.35"/>
    <polygon fill="#be926f" points="0.38 41.22 0 41.66 1.97 43.57 4 41.7 3.6 41.22 2 42.84 0.38 41.22"/>
</svg>