<svg xmlns="http://www.w3.org/2000/svg" width="80px" height="85px" viewBox="0 0 50 59.87">
<path fill="#be926f" d="M505.28,509.6c.68,0,1.34,0,2,0,.21,0,.27-.08.29-.28.29-2.18.59-4.36.88-6.54q.62-4.72,1.22-9.45c.1-.81.12-1.64.26-2.45a7.62,7.62,0,1,1,10.47,8.49.45.45,0,0,0-.32.46c-.16,2.6-.33,5.21-.49,7.81-.1,1.68-.21,3.37-.3,5.05a1.23,1.23,0,0,0,.12.56,6.65,6.65,0,0,1-5.77,9.65h-.52l1.79,6.79c-1.15,0-2.26-.05-3.36,0a1.36,1.36,0,0,1-1.52-.89c-1-1.88-2-3.71-3-5.57a.57.57,0,0,0-.57-.35H494.07a.56.56,0,0,0-.56.35c-1.12,2-2.25,4.07-3.35,6.12a.57.57,0,0,1-.58.33c-1.19,0-2.38,0-3.58,0h-.41l1.81-6.81a6.83,6.83,0,0,1-3.88-1.81c-.07.16-.13.29-.18.42-.46,1.3-.93,2.59-1.4,3.89a3.57,3.57,0,0,1-3.87,2.36,3.53,3.53,0,0,1-3-3.36,3.45,3.45,0,0,1,.16-1.23q2.32-7.62,4.68-15.24a5.53,5.53,0,0,1,5-3.93l4.94-.35a1,1,0,0,0,.17,0l0-.12c-1.7-.63-3.4-1.23-5.08-1.91s-3.3-1.45-5-2.2l-3,5.41-1-.55,3.45-6.23,4.14,1.68c0-.15,0-.27,0-.39a2.3,2.3,0,0,1,2.4-2.19.62.62,0,0,0,.6-.31c1-1.45,2-2.88,3-4.32l.25-.34.92.62-3.05,4.44,1.56.12c1.16.09,2.33.16,3.49.26a.55.55,0,0,0,.58-.28c1-1.48,2-2.94,3-4.42a1.54,1.54,0,0,0,.16-.44,30.21,30.21,0,0,1,2.72-6.64,5.18,5.18,0,0,1,8.21-1,5.1,5.1,0,0,1,1.28,4.31c-.31,3-.58,6.05-.87,9.07-.25,2.66-.49,5.32-.76,8a5,5,0,0,1-1.63,3.22l-.18.19Zm3.24,1.11H488.16a5.54,5.54,0,1,0,0,11.08h7.94c5.78,0,11.57,0,17.35,0a5.52,5.52,0,0,0,4.91-8.13,1.62,1.62,0,0,1-.2-.91q.45-6.84.86-13.67a.5.5,0,0,1,.4-.54,6.5,6.5,0,1,0-8.47-6.82c-.15,1.6-.33,3.2-.53,4.8-.47,3.66-1,7.32-1.46,11C508.81,508.56,508.67,509.61,508.52,510.71Zm-12.84-6.38-.27,0c-3.44.24-6.88.5-10.32.72a4.48,4.48,0,0,0-4.15,3.21q-2.35,7.57-4.66,15.17a2.85,2.85,0,0,0,0,1.3,2.37,2.37,0,0,0,2.22,1.89,2.4,2.4,0,0,0,2.39-1.57c.56-1.48,1.09-3,1.63-4.47.06-.16.15-.31.23-.49l-.13-.19a6.62,6.62,0,0,1,4.67-10.25,28.45,28.45,0,0,1,3.58-.08h11A4,4,0,0,0,506,506c.26-2.19.44-4.38.65-6.58.34-3.59.67-7.18,1-10.76a3.9,3.9,0,0,0-.33-2.16,3.75,3.75,0,0,0-3.28-2.18,3.83,3.83,0,0,0-3.76,1.94c-.48.79-.84,1.66-1.26,2.5a1.21,1.21,0,0,0,0,.21l2.14-3.21.93.62c-.1.15-.17.27-.25.38-1.59,2.38-3.19,4.77-4.79,7.14-1,1.47-2,2.92-3,4.38a.82.82,0,0,1-.79.43c-.8-.07-1.6-.12-2.4-.18l-4.71-.33a1.24,1.24,0,0,0-1.33.94,1.07,1.07,0,0,0,.37,1.15,4.81,4.81,0,0,0,1.24.43c2.38.34,4.76.63,7.14.95a2.45,2.45,0,0,0,2.43-1q4.26-5.51,8.53-11l.29-.36.88.69c-3,3.88-6,7.73-9,11.57-.17.22-.42.38-.61.59a.9.9,0,0,0-.22.42C495.74,503.18,495.72,503.74,495.68,504.33Zm12.47,18.58c0,.09,0,.13,0,.16,1,1.78,1.95,3.56,2.93,5.33.05.08.14.17.21.17h2.13c-.05-.19-.08-.34-.12-.48-.42-1.61-.85-3.23-1.29-4.84,0-.14-.18-.34-.28-.34C510.58,522.9,509.39,522.91,508.15,522.91ZM487,528.58c.7,0,1.32,0,1.95,0a.45.45,0,0,0,.46-.27q1.38-2.55,2.78-5.08c0-.09.09-.19.15-.33-1.26,0-2.46,0-3.66,0-.08,0-.2.16-.23.26-.23.82-.44,1.64-.66,2.46S487.32,527.56,487,528.58Zm3.46-26.15,0,.06c.26.11.52.2.76.33a4.78,4.78,0,0,0,3,.52c.38-.06.45-.19.39-.44Z" transform="translate(-475.03 -469.85)"/>
<path fill="#be926f" d="M499.63,483.46a6.81,6.81,0,1,1,6.81-6.81A6.79,6.79,0,0,1,499.63,483.46Zm-5.7-6.81a5.69,5.69,0,1,0,5.68-5.69A5.7,5.7,0,0,0,493.93,476.65Z" transform="translate(-475.03 -469.85)"/></svg>