<svg xmlns="http://www.w3.org/2000/svg" viewBox="0 0 50 43.84">
    <path fill="#be926f" d="M507.82,496.27h16.5c.9,0,.94,0,.94.93v8.53c0,1.18-.56,1.52-1.65,1.1a6.09,6.09,0,0,0-1.83-.42,2.59,2.59,0,1,0,0,5.18,5.42,5.42,0,0,0,1.77-.4c1.14-.45,1.71-.12,1.71,1.08v8.65c0,.72-.09.81-.82.81H491.19c-1.08,0-1.42-.58-1.05-1.61a6.37,6.37,0,0,0,.43-2.06,2.58,2.58,0,0,0-5.15,0,6.11,6.11,0,0,0,.42,2.07c.39,1.07.06,1.64-1.07,1.65h-8.65c-.77,0-.86-.09-.86-.84v-23.8c0-.73.09-.82.81-.82h8.71c1.13,0,1.45.59,1.05,1.65a6,6,0,0,0-.41,1.95,2.58,2.58,0,0,0,5.16,0,6,6,0,0,0-.42-1.95c-.41-1.09-.08-1.66,1.1-1.66Zm-31.59,1v23.55h8.86c-.11-.25-.19-.45-.27-.66a4.26,4.26,0,0,1,0-3.34,3.52,3.52,0,0,1,4.23-1.95,3.57,3.57,0,0,1,2.47,4.08,18.48,18.48,0,0,1-.5,1.87h8.82v-8.55c0-1.12.6-1.46,1.65-1.06a6.39,6.39,0,0,0,2,.42,2.58,2.58,0,0,0,0-5.16,5.54,5.54,0,0,0-1.89.38c-1.18.46-1.74.14-1.74-1.11v-8.47h-8.89c.11.28.19.5.28.72a3.93,3.93,0,0,1-.92,4.55,3.52,3.52,0,0,1-4,.4,3.57,3.57,0,0,1-1.8-3.79,17,17,0,0,1,.51-1.88ZM524.31,512a16.21,16.21,0,0,1-2,.5,3.52,3.52,0,0,1-4-3.05,3.42,3.42,0,0,1,2.92-3.88,10,10,0,0,1,2.52.28,3.26,3.26,0,0,1,.62.24v-8.84H500.75v8.84c2-.85,3.95-1.05,5.45.89a3.33,3.33,0,0,1,.1,3.91c-1.47,2.1-3.44,1.91-5.53,1.05v8.83h23.54Z" transform="translate(-475.26 -477.89)"/>
    <path fill="#be926f" d="M500.72,481.37v2.88c0,.34-.07.69-.46.62-.18,0-.43-.41-.44-.64,0-1.9,0-3.8,0-5.7,0-.33.07-.65.47-.64s.45.33.45.66Z" transform="translate(-475.26 -477.89)"/>
    <path fill="#be926f" d="M487.7,489.74c0,.43-.33.65-.64.5a1.22,1.22,0,0,1-.33-.27l-4-3.93c-.24-.25-.48-.52-.17-.83s.59-.06.83.18l3.94,3.94A3.65,3.65,0,0,1,487.7,489.74Z" transform="translate(-475.26 -477.89)"/>
    <path fill="#be926f" d="M513.38,490.29c-.42,0-.65-.32-.5-.63a1.4,1.4,0,0,1,.27-.33l3.94-3.94c.24-.25.52-.49.83-.18s.07.59-.17.83l-4,3.94A3,3,0,0,1,513.38,490.29Z" transform="translate(-475.26 -477.89)"/>
    <path fill="#be926f" d="M493.73,485.86c-.14.15-.24.37-.39.4a.56.56,0,0,1-.5-.2c-.43-1-.84-1.95-1.21-2.94-.05-.12.11-.41.24-.47s.47,0,.52.12C492.85,483.77,493.27,484.78,493.73,485.86Z" transform="translate(-475.26 -477.89)"/>
    <path fill="#be926f" d="M506.83,485.84c.21-.53.4-1,.58-1.43a15.78,15.78,0,0,1,.65-1.52c.09-.15.39-.19.59-.27.08.2.28.44.22.6-.34.93-.72,1.86-1.14,2.77a.76.76,0,0,1-.59.26C507,486.24,506.93,486,506.83,485.84Z" transform="translate(-475.26 -477.89)"/>
</svg>