<svg xmlns="http://www.w3.org/2000/svg" width="90px" height="90px" viewBox="0 0 50 50.07">
    <path fill="#be926f" d="M524.5,502.57H476a.76.76,0,0,0-.76.76v20.75a.76.76,0,0,0,.76.76H524.5a.76.76,0,0,0,.76-.76V503.33A.76.76,0,0,0,524.5,502.57Zm-.52,21H476.54V503.84H524Z" transform="translate(-475.26 -474.77)"/>
    <path fill="#be926f" d="M519.54,503.08V499c0-1.74-.62-2.71-2.3-2.71s-2.08,1.67-2.12,2.36a.67.67,0,0,1-1.32-.09,3.67,3.67,0,0,1,3.53-3.55,3.38,3.38,0,0,1,3.51,3.51v4.59Z" transform="translate(-475.26 -474.77)"/>
    <rect fill="#be926f" x="26.25" y="26" width="6.67" height="1.32" rx="0.66"/>
    <rect fill="#be926f" x="16.71" y="26" width="6.67" height="1.32" rx="0.66"/>
    <path fill="#be926f" d="M487.61,498.8h-9.48a.67.67,0,0,0-.66.66v3.31h10.8v-3.31A.66.66,0,0,0,487.61,498.8Zm-.64,3.88h-8.2V500.1H487Z" transform="translate(-475.26 -474.77)"/>
    <path fill="#be926f" d="M506.93,513.11H493.58a.66.66,0,0,0-.66.66v6.62a.66.66,0,0,0,.66.66h13.35a.66.66,0,0,0,.66-.66v-6.62A.66.66,0,0,0,506.93,513.11Zm-.71,6.7H494.29v-5.46h11.93Z" transform="translate(-475.26 -474.77)"/>
    <circle fill="#be926f" cx="9.85" cy="35.15" r="1.17"/>
    <circle fill="#be926f" cx="39.79" cy="35.15" r="1.17"/>
    <circle fill="#be926f" cx="19.3" cy="31.78" r="1.17"/>
    <circle fill="#be926f" cx="25" cy="31.78" r="1.17"/>
    <circle fill="#be926f" cx="30.7" cy="31.78" r="1.17"/>
    <path fill="#be926f" d="M511.12,486l-8.49-6.23v-4.31a.65.65,0,0,0-.65-.64h-3.82a.64.64,0,0,0-.64.64l0,4.59L489.36,486a.69.69,0,0,0,.41,1.24h20.94A.69.69,0,0,0,511.12,486Zm-12.28-9.87h2.5v3.46h-2.5Zm-7,9.7,6.68-4.95h3.55l6.6,4.95Z" transform="translate(-475.26 -474.77)"/>
</svg>