<svg xmlns="http://www.w3.org/2000/svg" viewBox="0 0 50 25.48">
    <path fill="#be926f" d="M515.25,503.74h-6.37a.35.35,0,0,0-.39.28,3.19,3.19,0,0,0,.2,2.63.65.65,0,0,1,.08.48.73.73,0,0,1-.43.36c-.25.08-.44-.09-.55-.31a4.17,4.17,0,0,1-.41-3.13c0-.09.05-.18.08-.29h-6.23c-.13.44-.09.49.3.7a2,2,0,0,1,1.15,1.82c0,.54-.05,1.09-.05,1.64a.86.86,0,0,0,.11.45,2.62,2.62,0,1,1-4.7,2,2.71,2.71,0,0,1,.46-2,.67.67,0,0,0,.1-.34c0-.65-.07-1.3,0-1.94a2,2,0,0,1,1.28-1.7c.07,0,.16-.06.25-.1v-.55H493.3a.34.34,0,0,0-.37.26,3.18,3.18,0,0,0,.19,2.63.68.68,0,0,1,.08.51.72.72,0,0,1-.43.35c-.24.08-.42-.09-.53-.3a4.13,4.13,0,0,1-.46-3c0-.15.07-.29.12-.48h-7.06a.39.39,0,0,0-.43.31,3.12,3.12,0,0,0,.21,2.57,1,1,0,0,1,.11.41.47.47,0,0,1-.4.47.51.51,0,0,1-.58-.28,4.13,4.13,0,0,1-.53-2.64c0-.39.18-.76.27-1.15l.11-.07a3.45,3.45,0,0,1-.32-.2l-7.71-7.71a1,1,0,0,1-.32-.78c0-.9,0-1.8,0-2.69,0-.6.14-.74.75-.74h48.73a.5.5,0,0,1,.51.54c0,1,0,2.06,0,3.09a.72.72,0,0,1-.2.46l-8.21,8.22s0,0-.07.06c-.6.25-.59.81-.64,1.32a3,3,0,0,0,.41,1.75.53.53,0,1,1-.93.49,4.21,4.21,0,0,1-.4-3.13l.06-.2Zm-30.16-1.07h.09c2.35,0,4.7,0,7.05,0a.37.37,0,0,0,.26-.2,3.09,3.09,0,0,0-.17-2.67c-.19-.37-.13-.67.17-.82s.57,0,.75.33a4.13,4.13,0,0,1,.48,2.62c-.05.25-.1.49-.16.73h6.57v-3.31c0-.43.17-.64.51-.65s.54.21.54.66v3.3l.19,0h6.4a.27.27,0,0,0,.29-.21,3.15,3.15,0,0,0-.2-2.71.53.53,0,1,1,.93-.49,4.16,4.16,0,0,1,.49,2.65l-.15.73.1,0h6.36c.18,0,.23-.09.28-.23a3.12,3.12,0,0,0-.19-2.68c-.18-.35-.12-.64.17-.79a.51.51,0,0,1,.75.31,12.16,12.16,0,0,1,.48,1.44,5.25,5.25,0,0,1,.08.82l6.13-6.13H477.2l6.85,6.85a3.06,3.06,0,0,0-.24-2.5c-.18-.35-.12-.64.17-.79s.57,0,.75.31a4.06,4.06,0,0,1,.53,2.13C485.23,501.84,485.15,502.25,485.09,502.67Zm-8.77-8.33h47.85v-2H476.32ZM499.7,508.1a2,2,0,0,1-.37,1,2,2,0,0,0-.23.84,1.45,1.45,0,0,0,1,1.44,1.56,1.56,0,0,0,1.68-.43,1.51,1.51,0,0,0,.16-1.81c-.22-.32-.48-.6-.38-1Zm1.95-1.08a7.15,7.15,0,0,0-.08-.95,1,1,0,0,0-1.86-.1,7.06,7.06,0,0,0-.1,1Z" transform="translate(-475.24 -487.07)"/>
    <path fill="#be926f" d="M522.82,489.16a4.29,4.29,0,0,1-2.09-.57,3.22,3.22,0,0,0-3.32,0,4.14,4.14,0,0,1-4.22,0,3.21,3.21,0,0,0-3.28,0,4.17,4.17,0,0,1-4.27,0,3.17,3.17,0,0,0-3.27,0,4.13,4.13,0,0,1-4.24,0,3.2,3.2,0,0,0-3.3,0,4.15,4.15,0,0,1-4.2,0,3.24,3.24,0,0,0-3.37,0,4.08,4.08,0,0,1-4.12,0,3.3,3.3,0,0,0-3.43,0,4.11,4.11,0,0,1-4.14,0,.52.52,0,0,1,.31-1,.82.82,0,0,1,.24.1,3.18,3.18,0,0,0,3.17,0,4.14,4.14,0,0,1,4.27,0,3.18,3.18,0,0,0,3.25,0,4.18,4.18,0,0,1,4.29,0,3.15,3.15,0,0,0,3.23,0,4.18,4.18,0,0,1,4.29,0,3.16,3.16,0,0,0,3.25,0,4.2,4.2,0,0,1,4.3,0,3.13,3.13,0,0,0,3.22,0,4.19,4.19,0,0,1,4.27,0,3.23,3.23,0,0,0,3.3,0,4.14,4.14,0,0,1,4.22,0,3.17,3.17,0,0,0,3.22.05.54.54,0,0,1,.78.18.52.52,0,0,1-.28.74A4.42,4.42,0,0,1,522.82,489.16Z" transform="translate(-475.24 -487.07)"/>
</svg>