<svg xmlns="http://www.w3.org/2000/svg" width="95px" viewBox="0 0 50 41.26">
    <path fill="#be926f" d="M484.85,514.05H478.6a1.68,1.68,0,0,1-1.84-1.87q0-13.35,0-26.69v-.16a1.69,1.69,0,0,1,1.54-1.71c.21,0,.42,0,.63,0q7.4,0,14.77,0a1.79,1.79,0,0,0,1-.34c1.69-1.24,3.35-2.51,5-3.79a.8.8,0,0,1,1.16,0c1.64,1.27,3.31,2.51,5,3.78a1.61,1.61,0,0,0,1.1.37h14.76c1.52,0,2.12.59,2.12,2.09V512c0,1.42-.6,2-2,2h-6.08a8.22,8.22,0,0,0,0,1.12c0,.11.25.26.39.26.7,0,1.41,0,2.11,0h6.27c.67,0,.81.15.79.81a4.46,4.46,0,0,1-4.33,4.22h-41a4.47,4.47,0,0,1-4.58-3.64,2.76,2.76,0,0,1-.06-.57c0-.67.12-.82.78-.82h8.07c.73,0,.73,0,.73-.74Zm-3-25.38V509h36.88V488.67l-.54,0c-2.83,0-5.66,0-8.49,0-.5,0-.62.14-.62.62,0,2.95,0,5.91,0,8.86a1.1,1.1,0,0,1-.51,1q-3.87,2.72-7.7,5.47a.9.9,0,0,1-1.22,0c-2.53-1.83-5.09-3.64-7.65-5.43a1.2,1.2,0,0,1-.56-1.1c0-2.95,0-5.91,0-8.86,0-.43-.11-.57-.56-.57-2.86,0-5.73,0-8.59,0Zm10.86-3.79-.13-.13-.46,0H478.81c-.81,0-.93.12-.93,1V512c0,.82.1.92.9.92h43c.78,0,.88-.1.88-.88V485.67c0-.82-.12-.94-.94-.94H508.46l-.5,0-.14.11c1.36.47,1.35,1.55,1.24,2.67h9.86c.81,0,.94.13.94,1v20.68c0,.86-.12,1-1,1H481.61c-.81,0-.95-.13-.95-.95V488.46c0-.8.13-.93,1-.93h9.86C491.34,486.37,491.35,485.33,492.69,484.88Zm-16.24,31.71a3.29,3.29,0,0,0,3.4,2.76H521a3.24,3.24,0,0,0,3-2.76ZM493,486l.43.35c2.15,1.64,4.32,3.27,6.46,4.92a.57.57,0,0,0,.85,0c2.13-1.64,4.28-3.26,6.42-4.89l.48-.4c-.12-.07-.21-.1-.28-.15-2.25-1.71-4.51-3.42-6.75-5.14-.29-.23-.45-.12-.68,0-1.46,1.13-2.94,2.24-4.41,3.36Zm7.89,7.66v9.57l6.71-4.77-1-.79a.54.54,0,0,1-.16-.82c.23-.31.54-.27.83-.06s.45.31.71.5V487.16l-6.5,4.94c.15.43.4.78.32,1S501.23,493.44,500.85,493.65Zm-1.18,9.57v-9.8c-.89-.1-1-.43-.46-1.25l-6.61-5V497.3c.24-.18.41-.29.57-.42.57-.42.93-.48,1.14-.14.34.56-.15.78-.48,1.05l-.85.67ZM486,515.42h28.53v-1.34H486Z" transform="translate(-475.26 -479.21)"/>
    <path fill="#be926f" d="M502.57,494.46c0-.51.42-.83.79-.58a22.64,22.64,0,0,1,2,1.54.66.66,0,0,1,0,.64.7.7,0,0,1-.66.17c-.69-.45-1.33-1-2-1.48A.71.71,0,0,1,502.57,494.46Z" transform="translate(-475.26 -479.21)"/>
    <path fill="#be926f" d="M497.66,493.69c.09.08.32.17.37.33a.71.71,0,0,1-.09.61,23.67,23.67,0,0,1-2,1.49.68.68,0,0,1-.64-.11c-.12-.13-.16-.56-.06-.64.68-.58,1.4-1.1,2.12-1.64C497.42,493.7,497.49,493.71,497.66,493.69Z" transform="translate(-475.26 -479.21)"/>
</svg>