<svg xmlns="http://www.w3.org/2000/svg" width="80px" height="95px" viewBox="0 0 47.01 67.54">
<path fill="#be926f" d="M504.88,513.66c0,.55,0,1.05,0,1.55a138.56,138.56,0,0,1-.12,14.12c-.07,1.06-.2,2.13-.37,3.18s-.37,1.07-1.32,1.07h-4.22c-.59,0-.83-.12-1-.71a26.26,26.26,0,0,1-.44-3.17,133.23,133.23,0,0,1-.12-15.35c0-.21,0-.42,0-.69H482.94c-1,0-1.11-.1-1.11-1.09q0-16.73,0-33.46c0-.41-.08-.61-.51-.74a6.32,6.32,0,0,1,2-12.33q10.95,0,21.91,0c4.07,0,8.13,0,12.2,0a6.3,6.3,0,0,1,6.52,6.5v40.11c0,.88-.14,1-1,1H504.88Zm8.64-17.92h.76a2.47,2.47,0,0,1,2.67,2,8.1,8.1,0,0,1,.19,1.91,3.2,3.2,0,0,1-3.5,3.5h-10a1.89,1.89,0,0,0-1.9,1.93c0,1.09,0,2.17,0,3.26a2.6,2.6,0,0,0,0,.35h.83c1.57,0,1.69.1,1.9,1.65.1.67.16,1.33.24,2h18V476c0-1.27,0-2.53,0-3.8a5.05,5.05,0,0,0-8.68-3.36c-.07.08-.13.18-.24.32h.58c1.2,0,2.41,0,3.62,0a4.77,4.77,0,0,1-.47,9.53H483.14v33.66h14.31c0-.25.05-.47.08-.7.12-.75.2-1.51.38-2.25s.36-.71.95-.71h1.58c0-.2,0-.34,0-.49v-2.89a3.19,3.19,0,0,1,3.43-3.44h9.68c.19,0,.39,0,.59,0a1.93,1.93,0,0,0,1.71-1.81,7.39,7.39,0,0,0,0-1.33c-.22-1.66-.87-1.89-2.34-1.64,0,.53,0,1.08,0,1.63a.75.75,0,0,1-.55.8,3.77,3.77,0,0,1-.75.2c-1.09.13-2.18.28-3.28.34a131.74,131.74,0,0,1-16.86-.08c-.91-.07-1.81-.24-2.71-.4a.8.8,0,0,1-.73-.82q0-2.38,0-4.77a.74.74,0,0,1,.51-.74,3.27,3.27,0,0,1,.74-.21c1.08-.13,2.16-.29,3.24-.35a132.73,132.73,0,0,1,17,.09,17.83,17.83,0,0,1,2.62.4c.59.12.72.36.72.94S513.52,495.15,513.52,495.74Zm.24-28.41-.59,0H483.42a5.32,5.32,0,0,0-1.05.09,5.06,5.06,0,0,0,1,10H513.3l.43,0A6.45,6.45,0,0,1,513.76,467.33ZM499,510c-.12,1.3-.26,2.55-.33,3.79-.24,4.23-.26,8.47-.09,12.7.07,1.8.26,3.59.39,5.39,0,.32.13.47.51.46,1.11,0,2.23,0,3.35,0,.29,0,.4-.1.43-.38.08-.81.2-1.61.26-2.42a139.51,139.51,0,0,0,.08-15.44c-.06-1.25-.22-2.49-.36-3.74a.5.5,0,0,0-.29-.35C501.64,510,500.36,510,499,510Zm-9-11.52c.71.08,1.39.19,2.07.24a132.16,132.16,0,0,0,17.12.08c.91,0,1.82-.16,2.73-.28.15,0,.39-.2.39-.3,0-1.28,0-2.56,0-3.85a1.73,1.73,0,0,0-.34-.09c-.56-.08-1.12-.17-1.68-.21A133.56,133.56,0,0,0,493,494c-.9,0-1.8.17-2.69.28-.15,0-.39.2-.39.3C489.92,495.83,489.93,497.11,489.93,498.46Zm22.68-25.95a1.19,1.19,0,0,0,0,.2,5.06,5.06,0,0,0,5.43,4.71,3.48,3.48,0,0,0,3-4.26,3.49,3.49,0,0,0-6.33-1.15,1,1,0,0,1-1,.51C513.37,472.49,513,472.51,512.61,472.51Zm.15-1.31c.76.28,1.18-.12,1.53-.76h-.71C512.86,470.44,512.85,470.44,512.76,471.2Z" transform="translate(-476.96 -466.03)"/></svg>