<svg xmlns="http://www.w3.org/2000/svg" viewBox="0 0 50 42.41">
    <path fill="#be926f" d="M518,516.59l1.1,2a1.65,1.65,0,1,1-2.87,1.6c-.34-.61-.67-1.22-1-1.84l-.25.08a18.32,18.32,0,0,1-7.82,1.66c-3.93,0-7.86-.05-11.79,0a20.32,20.32,0,0,1-9.93-1.92c-.41.72-.79,1.43-1.19,2.13a1.64,1.64,0,0,1-2.88-1.58c.2-.4.43-.78.65-1.17l.65-1.19-.18-.11a12.89,12.89,0,0,1-4.61-8.09c-.22-1.37-.54-2.73-.8-4.1a.52.52,0,0,0-.37-.43,2.16,2.16,0,0,1-1.39-2.44,2.19,2.19,0,0,1,2.16-1.79h2.69v-.56c0-4.68,0-9.36,0-14A6,6,0,0,1,492,484c0,.4.17.51.56.5a7,7,0,0,1,1.58.08,4.15,4.15,0,0,1,3.35,4c0,.35,0,.72,0,1.11H485.58a4.62,4.62,0,0,1,1.27-4,5.08,5.08,0,0,1,4.15-1.14c-.07-.39-.11-.7-.19-1a4.87,4.87,0,0,0-9.57,1.2c0,4.79,0,9.59,0,14.38,0,.09,0,.19,0,.34h41.58a2.2,2.2,0,0,1,2.31,1.61,2.12,2.12,0,0,1-1.21,2.55.7.7,0,0,0-.47.68c-.23,1.68-.39,3.38-.73,5a12.13,12.13,0,0,1-4.28,6.9ZM478.12,503.8c0,.18,0,.32.07.46.27,1.35.57,2.69.81,4.05a11.45,11.45,0,0,0,4.09,7,15.33,15.33,0,0,0,9.73,3.59c5.06.08,10.12.07,15.17,0a15.35,15.35,0,0,0,9.18-3.15,11.22,11.22,0,0,0,4.43-6.49c.32-1.36.43-2.78.63-4.17.06-.43.11-.86.17-1.32Zm22.11-1.14H522.8c.81,0,1.32-.4,1.32-1.06s-.5-1.08-1.34-1.08h-45c-.88,0-1.4.4-1.39,1.08s.52,1.06,1.41,1.06Zm-13.51-14.15h9.66a2,2,0,0,0,0-.35,3.08,3.08,0,0,0-3-2.58c-1.25,0-2.5,0-3.76,0a3,3,0,0,0-2.94,2.93Zm-3.21,28.56c-.42.75-.82,1.46-1.21,2.18a.49.49,0,0,0,.21.72.47.47,0,0,0,.68-.18c.41-.7.8-1.42,1.2-2.14Zm32.65.73c.37.68.72,1.31,1.08,1.94a.49.49,0,0,0,.7.24.45.45,0,0,0,.26-.62c-.35-.72-.76-1.41-1.15-2.12Z" transform="translate(-475.23 -478.76)"/>
    <path fill="#be926f" d="M491,496.37a6.94,6.94,0,0,1,0-.79.56.56,0,0,1,1.11,0c0,.54,0,1.08,0,1.63a.56.56,0,0,1-1.11,0C491,496.93,491,496.65,491,496.37Z" transform="translate(-475.23 -478.76)"/>
    <path fill="#be926f" d="M495.36,496.39a7.63,7.63,0,0,1,0,.83.52.52,0,0,1-.57.54.5.5,0,0,1-.53-.53c0-.56,0-1.11,0-1.67a.55.55,0,0,1,1.1,0A7.85,7.85,0,0,1,495.36,496.39Z" transform="translate(-475.23 -478.76)"/>
    <path fill="#be926f" d="M488.84,492.71c0,.26,0,.53,0,.79a.52.52,0,0,1-.58.53.5.5,0,0,1-.53-.53c0-.56,0-1.11,0-1.67a.52.52,0,0,1,.57-.54.53.53,0,0,1,.54.54C488.86,492.12,488.84,492.41,488.84,492.71Z" transform="translate(-475.23 -478.76)"/>
    <path fill="#be926f" d="M491,492.64c0-.26,0-.53,0-.79a.56.56,0,1,1,1.11,0c0,.54,0,1.09,0,1.63a.56.56,0,0,1-1.11,0C491,493.2,491,492.92,491,492.64Z" transform="translate(-475.23 -478.76)"/>
    <path fill="#be926f" d="M495.36,492.64c0,.28,0,.56,0,.83a.52.52,0,0,1-.55.56.51.51,0,0,1-.56-.55q0-.81,0-1.62a.53.53,0,0,1,.55-.57.54.54,0,0,1,.56.55C495.37,492.11,495.36,492.37,495.36,492.64Z" transform="translate(-475.23 -478.76)"/>
    <path fill="#be926f" d="M488.84,496.38c0,.27,0,.53,0,.79s-.25.62-.57.6a.54.54,0,0,1-.54-.57c0-.55,0-1.09,0-1.63a.5.5,0,0,1,.56-.54.52.52,0,0,1,.55.56C488.85,495.85,488.84,496.12,488.84,496.38Z" transform="translate(-475.23 -478.76)"/>
</svg>