<svg xmlns="http://www.w3.org/2000/svg" viewBox="0 0 29.41 30.2"><g id="Layer_2" data-name="Layer 2"><g id="Layer_1-2" data-name="Layer 1"><polyline points="14.91 29.75 0.76 19.77 9.73 6.8" style="fill:none;stroke:#be926f;stroke-miterlimit:10;stroke-width:1.10173463821411px"/><polyline points="11.65 3.91 14.06 0.55 24.52 0.55 28.79 10.8 23.93 17.79" style="fill:none;stroke:#be926f;stroke-miterlimit:10;stroke-width:1.10173463821411px"/><path d="M3.43,11.23s-5.28-3.15,0-5.82c8.6-3.52,17.89,0,17.89,0" style="fill:none;stroke:#be926f;stroke-miterlimit:10;stroke-width:1.10173463821411px"/><path d="M19.55,4.86s-.64,2.95,2,2.95,3.05-3.18.54-4" style="fill:none;stroke:#be926f;stroke-miterlimit:10;stroke-width:1.10173463821411px"/><path d="M16.1,18.63h0c-1.32,0-2.26,1.08-2.26,2.7s1,2.59,2.2,2.59,2.23-.92,2.23-2.73C18.25,19.65,17.44,18.63,16.1,18.63Zm0,4.37c-.65,0-1-.73-1-1.72s.33-1.73,1-1.73h0c.7,0,1,.76,1,1.71S16.7,23,16.06,23Z" style="fill:#be926f;stroke:#be926f"/><path d="M22.48,23.54h0c-1.31,0-2.25,1.08-2.25,2.69s1,2.59,2.18,2.59,2.23-.92,2.23-2.72C24.63,24.56,23.83,23.54,22.48,23.54Zm0,4.37c-.65,0-1-.74-1-1.71s.33-1.74,1-1.74h0c.7,0,1,.76,1,1.72S23.1,27.91,22.44,27.91Z" style="fill:#be926f;stroke:#be926f"/><line x1="21.64" y1="20.36" x2="16.79" y2="27.36" style="fill:none;stroke:#be926f;stroke-miterlimit:10;stroke-width:1.10173463821411px"/></g></g></svg>