<svg xmlns="http://www.w3.org/2000/svg" viewBox="0 0 45.02 31.69"><g id="Layer_2" data-name="Layer 2"><g id="Layer_1-2" data-name="Layer 1"><path d="M42.08,24.25c-.3,0-.55,0-.8,0s-.63-.24-.62-.56a.56.56,0,0,1,.61-.53H42a2.16,2.16,0,0,0-.84-1.33c-.44-.31-.91-.58-1.34-.91a1.94,1.94,0,0,1-.58-.66c-.54-1.06-1-2.15-1.55-3.22a2.93,2.93,0,0,0-2.85-1.8h-4V24c0,.1,0,.21,0,.31a.55.55,0,1,1-1.1,0c0-.64,0-1.28,0-1.92V22H18.8a.54.54,0,0,1-.53-.57.52.52,0,0,1,.52-.53,2,2,0,0,1,.34,0H29.71c0-.13,0-.25,0-.37V12c0-.79-.35-1.14-1.16-1.14H11.17a2.26,2.26,0,0,1-.45,0,.51.51,0,0,1-.44-.57.51.51,0,0,1,.51-.51h.34c5.8,0,11.6,0,17.39,0A2.18,2.18,0,0,1,30.84,12c0,.67,0,1.35,0,2.05l.44,0c1.26,0,2.52,0,3.77,0a3.9,3.9,0,0,1,3.55,2.23c.55,1.07,1,2.17,1.57,3.25a1.42,1.42,0,0,0,.41.47,8.78,8.78,0,0,0,1,.68,3.33,3.33,0,0,1,1.6,2.87c0,1,0,2,0,3a2.06,2.06,0,0,1-2.12,2.05c-.65,0-1.31,0-2,0-.22,0-.3.07-.36.28a3.55,3.55,0,0,1-6.9,0,.33.33,0,0,0-.39-.29H20.64c-.22,0-.33,0-.39.28a3.55,3.55,0,0,1-6.91,0,.32.32,0,0,0-.39-.28c-.7,0-1.41,0-2.11,0a2.06,2.06,0,0,1-2.09-2c0-1,0-1.94,0-2.91a.55.55,0,0,1,.56-.61c.34,0,.54.23.55.62v2.65c0,.78.36,1.14,1.16,1.14s1.3,0,2,0c.21,0,.3-.05.36-.27a3.55,3.55,0,0,1,6.91,0c.06.23.16.26.36.26H31.48c.22,0,.31-.06.37-.29a3.55,3.55,0,0,1,6.9,0c.06.21.14.28.36.27.66,0,1.33,0,2,0a.93.93,0,0,0,1-.92C42.1,25.88,42.08,25.1,42.08,24.25Zm-22.85,3.9a2.44,2.44,0,1,0-2.46,2.43A2.45,2.45,0,0,0,19.23,28.15Zm13.63,0a2.44,2.44,0,1,0,2.45-2.44A2.45,2.45,0,0,0,32.86,28.12Z" style="fill:#be926f"/><path d="M35.21,0a9.76,9.76,0,0,1,9.7,8.42A9.58,9.58,0,0,1,43,15.77a.6.6,0,0,1-.87.22c-.27-.21-.27-.54,0-.9l.15-.21A8.7,8.7,0,1,0,27.14,6.52a3.12,3.12,0,0,1-.18.42.54.54,0,0,1-1-.33,1.37,1.37,0,0,1,.11-.36A9.76,9.76,0,0,1,35.21,0Z" style="fill:#be926f"/><path d="M34.65,5.82c0-.68,0-1.36,0-2,0-.46.21-.69.58-.68s.52.23.52.68c0,1.35,0,2.69,0,4a.57.57,0,0,0,.3.57,1.91,1.91,0,0,1,.6.6.47.47,0,0,0,.48.26c1.12,0,2.24,0,3.35,0a.91.91,0,0,1,.64.29c.27.35,0,.8-.53.8-1.08,0-2.16,0-3.24,0a.74.74,0,0,0-.78.4,1.58,1.58,0,0,1-1.71.69,1.65,1.65,0,0,1-1.29-1.32,1.6,1.6,0,0,1,.75-1.71.58.58,0,0,0,.33-.63C34.64,7.12,34.65,6.47,34.65,5.82Zm1.11,4a.54.54,0,0,0-.54-.55.53.53,0,0,0-.56.53.54.54,0,0,0,.55.57A.55.55,0,0,0,35.76,9.81Z" style="fill:#be926f"/><path d="M36.52,22H35.27a2,2,0,0,1-2-1.86,12.31,12.31,0,0,1,0-1.92,2,2,0,0,1,1.87-1.85.58.58,0,0,1,.72.48c0,.35-.17.57-.59.62a1,1,0,0,0-.92,1q0,.74,0,1.47a1,1,0,0,0,1,1h2.45c.44,0,.7.22.7.56s-.27.55-.71.55Z" style="fill:#be926f"/><path d="M12.2,14.43H8.69c-.44,0-.7-.21-.7-.56s.27-.55.72-.55h7c.56,0,.87.38.66.8a.58.58,0,0,1-.6.31Z" style="fill:#be926f"/><path d="M8.69,22H6c-.46,0-.7-.19-.7-.55s.24-.56.69-.56c1.8,0,3.61,0,5.42,0,.46,0,.69.19.7.55s-.24.56-.69.56Z" style="fill:#be926f"/><path d="M10.27,18.42H8.13c-.41,0-.67-.23-.67-.56s.26-.55.67-.56h4.29c.41,0,.67.23.67.56s-.26.55-.67.55Z" style="fill:#be926f"/><path d="M7.19,9.74h.64a.5.5,0,0,1,.51.49.48.48,0,0,1-.45.59,11.37,11.37,0,0,1-1.43,0A.48.48,0,0,1,6,10.24a.5.5,0,0,1,.51-.5Z" style="fill:#be926f"/><path d="M4.81,14.42c-.22,0-.45,0-.67,0a.49.49,0,0,1-.5-.52.47.47,0,0,1,.42-.54,9.77,9.77,0,0,1,1.53,0,.46.46,0,0,1,.41.55.51.51,0,0,1-.51.51Z" style="fill:#be926f"/><path d="M1.09,18.41a5.42,5.42,0,0,1-.57,0A.51.51,0,0,1,0,17.88a.5.5,0,0,1,.5-.56,7.48,7.48,0,0,1,1.16,0,.52.52,0,0,1,.5.59.51.51,0,0,1-.54.51C1.44,18.42,1.26,18.41,1.09,18.41Z" style="fill:#be926f"/><path d="M4.71,18.41c-.16,0-.33,0-.49,0a.51.51,0,0,1-.53-.52.5.5,0,0,1,.48-.57,5.67,5.67,0,0,1,1.09,0,.51.51,0,0,1,.5.55.52.52,0,0,1-.52.54C5.06,18.42,4.89,18.41,4.71,18.41Z" style="fill:#be926f"/><path d="M15.13,22h-.34a.56.56,0,1,1,0-1.11c.21,0,.43,0,.64,0a.56.56,0,0,1,.58.56.57.57,0,0,1-.59.55Z" style="fill:#be926f"/><path d="M17.72,28.12a.91.91,0,0,1-.92.94.92.92,0,0,1-.94-.92,1,1,0,0,1,.92-.95A.94.94,0,0,1,17.72,28.12Z" style="fill:#be926f"/><path d="M35.3,29.06a.91.91,0,0,1-.93-.93.94.94,0,0,1,.93-.94,1,1,0,0,1,.94.95A.93.93,0,0,1,35.3,29.06Z" style="fill:#be926f"/></g></g></svg>