<svg xmlns="http://www.w3.org/2000/svg" viewBox="0 0 31.25 31.18"><g id="Layer_2" data-name="Layer 2"><g id="Layer_1-2" data-name="Layer 1"><path d="M2,20a2.21,2.21,0,0,1,.65-1.56c.53-.54,1.06-1.08,1.6-1.6a2.08,2.08,0,0,1,2.22-.52c1,.35,2.11.66,3.16,1a.38.38,0,0,0,.44-.1c1-1,2.05-2.06,3.07-3.08a1,1,0,0,1,1.55,0L17,16.5a1,1,0,0,1,0,1.49L13.93,21.1a.36.36,0,0,0-.11.41c.35,1.08.67,2.17,1,3.25a1.91,1.91,0,0,1-.4,2,21.63,21.63,0,0,1-1.91,1.92,2.18,2.18,0,0,1-3.1-.3.45.45,0,0,1,0-.61.46.46,0,0,1,.62,0l.19.18a1.25,1.25,0,0,0,1.8,0c.56-.54,1.11-1.1,1.66-1.66A1.44,1.44,0,0,0,14,25.8c.18-.47.12-.6-.32-.83a17,17,0,0,1-3.94-2.89A17.68,17.68,0,0,1,6.09,17.3a.41.41,0,0,0-.32-.17,1.16,1.16,0,0,0-.86.38c-.53.53-1.07,1.06-1.6,1.6a1.26,1.26,0,0,0,0,1.86,1.16,1.16,0,0,1,.2.25.41.41,0,0,1-.11.55.42.42,0,0,1-.57,0A2.24,2.24,0,0,1,2,20Zm5.31-2.47,0,.07A18.7,18.7,0,0,0,13.63,24a2.55,2.55,0,0,0-.08-.31c-.21-.7-.42-1.41-.66-2.1a.76.76,0,0,1,.22-.89c1.07-1,2.12-2.11,3.18-3.17.08-.08.14-.16.18-.19l-2.62-2.61a1.87,1.87,0,0,1-.17.23c-1,1.06-2.12,2.11-3.17,3.19a.73.73,0,0,1-.84.2c-.62-.22-1.25-.4-1.87-.59Z" style="fill:#be926f"/><path d="M20.72,17.12a1.92,1.92,0,0,1-1.35-.56c-1.53-1.54-3-3.1-4.62-4.6a2.14,2.14,0,0,1,0-3.11c.57-.56,1.15-1.1,1.74-1.63a22.35,22.35,0,0,1,3.44-2.6A4.45,4.45,0,0,1,21.62,4a1.42,1.42,0,0,1,1.22.45c1.28,1.3,2.57,2.6,3.88,3.88a1.48,1.48,0,0,1,.43,1.55A7,7,0,0,1,26,12.13a33.44,33.44,0,0,1-3.67,4.31A2.31,2.31,0,0,1,20.72,17.12Zm-.14-.88a1.56,1.56,0,0,0,1.12-.44c.25-.25.5-.5.74-.76a26.31,26.31,0,0,0,3.2-4,9,9,0,0,0,.64-1.41A.57.57,0,0,0,26.11,9c-1.31-1.29-2.62-2.59-3.91-3.9a.51.51,0,0,0-.55-.18,4,4,0,0,0-1,.4A29.45,29.45,0,0,0,18,7.11c-.92.74-1.78,1.56-2.64,2.37a1.16,1.16,0,0,0-.11,1.73q2.34,2.37,4.72,4.71A2.15,2.15,0,0,0,20.58,16.24Z" style="fill:#be926f"/><path d="M10.19,26.28,8,28.51,5.47,31a.45.45,0,0,1-.65,0,.45.45,0,0,1,0-.68L5,30.21l4.3-4.3c.08-.08.17-.13.24-.19l-4-4-.2.19L.92,26.24a2.41,2.41,0,0,1-.24.21.42.42,0,0,1-.56-.09.43.43,0,0,1,0-.57,1.7,1.7,0,0,1,.19-.19q2.16-2.18,4.34-4.34a1.65,1.65,0,0,1,.27-.19l0-.13a3.79,3.79,0,0,1-.4-.3.44.44,0,0,1,0-.63.45.45,0,0,1,.64,0,.81.81,0,0,1,.16.16Q8.16,23,11,25.89l.15.14a.46.46,0,0,1,0,.66.45.45,0,0,1-.63,0A4.38,4.38,0,0,1,10.19,26.28Z" style="fill:#be926f"/><path d="M23.05,4c-.14-.11-.32-.18-.37-.29a.94.94,0,0,1,0-.47c0-.06.08-.11.13-.15L25.66.23c.26-.27.51-.3.71-.11s.19.47-.08.74c-.93.94-1.87,1.88-2.81,2.81A3.49,3.49,0,0,1,23.05,4Z" style="fill:#be926f"/><path d="M31.25,5.09a3.13,3.13,0,0,1-.25.38c-1,1-1.94,1.94-2.91,2.91a.46.46,0,0,1-.68.07.47.47,0,0,1,.05-.7c1-1,1.94-1.95,2.92-2.9a.69.69,0,0,1,.52-.13C31,4.75,31.12,5,31.25,5.09Z" style="fill:#be926f"/><path d="M13.44,19.37c-.59-.05-1.61-1.07-1.56-1.62a1.15,1.15,0,0,1,.27-.63c.37-.42.79-.81,1.19-1.21a.89.89,0,0,1,1.27,0q.36.33.69.69a.87.87,0,0,1,0,1.24c-.4.43-.81.85-1.25,1.25A2.83,2.83,0,0,1,13.44,19.37Zm-.62-1.61.58.59,1.19-1.19-.57-.6Z" style="fill:#be926f"/><path d="M17.39,8.85a2.92,2.92,0,0,1,.7.4c1.29,1.26,2.57,2.55,3.85,3.83a1,1,0,0,1,0,1.45c-.27.28-.55.56-.83.83a.45.45,0,0,1-.63,0,.46.46,0,0,1,0-.66L21.2,14c.15-.14.17-.24,0-.4C20,12.41,18.78,11.19,17.57,10c-.16-.17-.26-.15-.4,0s-.45.46-.68.69a.48.48,0,0,1-.68.06.46.46,0,0,1,0-.7,9.67,9.67,0,0,1,.79-.78A4.3,4.3,0,0,1,17.39,8.85Z" style="fill:#be926f"/></g></g></svg>