<svg xmlns="http://www.w3.org/2000/svg" viewBox="0 0 23.14 31.26"><g id="Layer_2" data-name="Layer 2"><g id="Layer_1-2" data-name="Layer 1"><path d="M14.26,18.51h.37c.85,0,1.69,0,2.54,0a1.93,1.93,0,0,1,2,1A2.34,2.34,0,0,1,19,22a.78.78,0,0,0-.13.69,2.56,2.56,0,0,1-.44,2.15.56.56,0,0,0-.07.4,2.6,2.6,0,0,1-.57,2.46.52.52,0,0,0-.13.34,2.52,2.52,0,0,1-2.14,3.09,4.29,4.29,0,0,1-.72.08c-2.11,0-4.23,0-6.34,0a3.66,3.66,0,0,1-1.84-.52,2.2,2.2,0,0,1-1.16-2c0-1.83,0-3.67,0-5.5,0,0,0-.07,0-.1,0-.28.1-.48.41-.5s.43.18.43.51,0,.74,0,1.1c0,1.48,0,3,0,4.44A1.44,1.44,0,0,0,7.13,30a3.92,3.92,0,0,0,1.81.37c2,0,3.89,0,5.84,0a3.33,3.33,0,0,0,1.15-.27,1.58,1.58,0,0,0,.89-1.58c0-.21-.09-.32-.33-.3s-.6,0-.9,0-.48-.17-.48-.44.17-.41.5-.41.67,0,1,0a.9.9,0,0,0,.52-.24,1.66,1.66,0,0,0,.41-1.45c0-.24-.14-.38-.42-.35s-.6,0-.9,0a.42.42,0,0,1-.48-.4c0-.26.17-.44.48-.44s.76,0,1.13,0a.63.63,0,0,0,.41-.21A1.61,1.61,0,0,0,18,22.78c-.06-.2-.16-.3-.38-.28s-.52,0-.77,0a.38.38,0,0,1-.44-.4.39.39,0,0,1,.43-.44c.37,0,.75,0,1.13,0a.41.41,0,0,0,.42-.25,1.69,1.69,0,0,0,.15-1.17,1.06,1.06,0,0,0-1.14-.87H13.73c-.62,0-.77-.26-.48-.81s.45-.9.68-1.34a4.21,4.21,0,0,0-1.06-4.75A1.79,1.79,0,0,0,11,12a.84.84,0,0,0-.62,1,8.9,8.9,0,0,1,.17,1.35,3.27,3.27,0,0,1-.25,1.32,14.61,14.61,0,0,1-2.64,3.7,3,3,0,0,1-2.3.93c-1.2-.05-2.4,0-3.6,0-.68,0-.88.2-.88.87v8.31c0,.65.2.85.86.85H3.41c.36,0,.56.16.56.43s-.2.41-.57.42H1.67A1.5,1.5,0,0,1,.06,29.67c0-2.83,0-5.65,0-8.47A1.5,1.5,0,0,1,1.7,19.53q2,0,3.93,0a1.43,1.43,0,0,0,1.1-.38,15.27,15.27,0,0,0,1.4-1.51c.49-.66.91-1.37,1.35-2.06A2.14,2.14,0,0,0,9.7,14c0-.25-.09-.5-.13-.76a1.79,1.79,0,0,1,1.68-2.15A2.83,2.83,0,0,1,13.6,12a5.1,5.1,0,0,1,1.09,5.65Z" style="fill:#be926f"/><path d="M15.18,10.19c0,.4-.31.56-.66.35-.61-.35-1.2-.72-1.8-1.08-.29-.17-.58-.33-.85-.52a.44.44,0,0,0-.57,0L8.79,10.47c-.2.12-.41.26-.64.09S8,10.17,8.05,10C8.28,9,8.5,8,8.74,7a.39.39,0,0,0-.14-.43c-.78-.66-1.55-1.33-2.32-2C6.11,4.42,6,4.29,6,4s.29-.26.51-.28l3.05-.26a.41.41,0,0,0,.39-.3c.37-.91.76-1.82,1.14-2.73.1-.21.16-.46.46-.46s.38.25.48.48c.37.89.76,1.77,1.12,2.67a.48.48,0,0,0,.48.35q1.53.1,3.06.27a.54.54,0,0,1,.41.29A.54.54,0,0,1,17,4.5c-.78.7-1.57,1.38-2.37,2.06a.39.39,0,0,0-.15.45c.24,1,.47,2,.7,3C15.15,10.07,15.17,10.15,15.18,10.19ZM9,9.4l.34-.19c.61-.36,1.23-.71,1.82-1.1a.69.69,0,0,1,.88,0c.62.39,1.25.76,1.88,1.13l.28.13C14,8.51,13.8,7.7,13.6,6.9a.63.63,0,0,1,.23-.73c.51-.42,1-.86,1.49-1.29l.47-.4-.45-.06c-.73-.06-1.46-.14-2.19-.18a.57.57,0,0,1-.54-.41c-.22-.55-.46-1.1-.69-1.65l-.33-.75c-.08.18-.14.28-.18.39-.29.68-.58,1.35-.85,2a.53.53,0,0,1-.52.38l-1.42.12L7.4,4.47c.13.12.2.2.29.27.52.45,1,.92,1.56,1.35a.76.76,0,0,1,.3.92C9.34,7.77,9.18,8.55,9,9.4Z" style="fill:#be926f"/><path d="M3.76,4.5c-.23.55-.44,1-.63,1.5a.46.46,0,0,1-.47.33c-.51,0-1,.09-1.61.15.42.36.78.7,1.16,1a.57.57,0,0,1,.22.71c-.12.46-.22.93-.34,1.48.46-.28.87-.5,1.24-.76a.67.67,0,0,1,.87,0c.37.26.78.48,1.24.76-.12-.54-.21-1-.34-1.45a.6.6,0,0,1,.25-.77A6.12,6.12,0,0,0,5.83,7a.3.3,0,0,1,.44,0,.31.31,0,0,1,0,.46l0,0c-.53.28-.54.69-.37,1.2a11.84,11.84,0,0,1,.33,1.43.48.48,0,0,1-.1.38.45.45,0,0,1-.39,0c-.59-.33-1.16-.68-1.73-1a.3.3,0,0,0-.37,0c-.56.34-1.11.68-1.68,1a.6.6,0,0,1-.45,0c-.18-.07-.13-.27-.09-.43.15-.63.29-1.26.44-1.89a.31.31,0,0,0-.13-.39C1.18,7.41.71,7,.23,6.57.09,6.46,0,6.34,0,6.14s.25-.21.42-.23l1.88-.16a.36.36,0,0,0,.37-.27c.24-.6.49-1.19.76-1.78a.46.46,0,0,1,.32-.26c.11,0,.26.15.31.27.31.68.6,1.38.89,2.08.11.26.07.44-.13.51S4.5,6.23,4.41,6Z" style="fill:#be926f"/><path d="M17.73,9.67c.51-.31.95-.56,1.38-.84a.5.5,0,0,1,.6,0c.42.27.86.52,1.37.82-.11-.45-.15-.84-.28-1.2a.87.87,0,0,1,.38-1.18,9.08,9.08,0,0,0,.93-.8c-.38,0-.69-.08-1-.1-.94-.06-.94-.06-1.3-.92l-.4-1c-.08.17-.13.27-.18.39-.16.39-.33.78-.49,1.18-.08.18-.21.29-.41.22s-.24-.26-.16-.46c.31-.73.62-1.47.95-2.2a.37.37,0,0,1,.3-.2.41.41,0,0,1,.29.23c.27.61.53,1.23.78,1.85a.31.31,0,0,0,.3.23l1.71.14a1.08,1.08,0,0,1,.32,0c.12,0,.29.11.31.2A.44.44,0,0,1,23,6.5c-.48.45-1,.88-1.48,1.29a.41.41,0,0,0-.15.47c.16.62.31,1.25.44,1.88,0,.12,0,.33-.09.38a.48.48,0,0,1-.42,0c-.57-.32-1.14-.67-1.7-1a.32.32,0,0,0-.39,0c-.54.34-1.09.67-1.64,1a.61.61,0,0,1-.47.08c-.21-.09-.13-.31-.09-.49.14-.62.28-1.25.44-1.88a.27.27,0,0,0-.11-.33c-.14-.1-.26-.22-.39-.33a.3.3,0,0,1-.05-.46.28.28,0,0,1,.43,0,7.63,7.63,0,0,1,.67.59.49.49,0,0,1,.09.39C18,8.55,17.86,9.06,17.73,9.67Z" style="fill:#be926f"/><path d="M4.24,28.27a1,1,0,0,1-.94.93.4.4,0,0,1-.45-.35.42.42,0,0,1,.3-.49.58.58,0,0,0,.25-.24c.1-.22.24-.36.48-.32A.41.41,0,0,1,4.24,28.27Z" style="fill:#be926f"/></g></g></svg>